<?xml version="1.0" standalone="no"?><!DOCTYPE svg PUBLIC "-//W3C//DTD SVG 1.1//EN" "http://www.w3.org/Graphics/SVG/1.1/DTD/svg11.dtd"><svg t="1497510568714" class="icon" style="" viewBox="0 0 1024 1024" version="1.1" xmlns="http://www.w3.org/2000/svg" p-id="12245" xmlns:xlink="http://www.w3.org/1999/xlink" width="500" height="500"><defs><style type="text/css"></style></defs><path d="M884.224698 266.427361C749.117594 60.900017 473.164903 3.712295 267.636538 138.815314 62.10613 273.919354 4.917386 549.875109 140.023469 755.402453c135.105062 205.529387 411.057752 262.717109 616.58816 127.613069C962.138974 747.91046 1019.326696 471.957769 884.224698 266.427361zM736.63162 852.54713c-188.795976 123.869115-442.273709 71.426185-566.142823-117.123666C46.372536 546.626468 99.066696 293.399965 287.613483 169.284726 476.41048 45.164381 729.638004 97.860583 853.754264 286.407371 977.622358 474.953137 925.18045 728.431891 736.63162 852.54713zM831.528495 300.889916C715.652814 124.330726 478.658282 75.384605 302.098071 191.259264 125.787048 307.133924 76.589696 544.379687 192.466399 720.689688 308.340037 897.250921 545.587842 946.197042 721.896822 830.321361 898.457034 714.193428 947.406219 477.199917 831.528495 300.889916zM712.158049 815.089208c-168.069422 110.381281-394.077195 63.679898-504.459497-104.389524-110.380259-168.067379-63.679898-394.075153 104.389524-504.458476 168.069422-110.381281 394.075153-63.679898 504.459497 104.387482C926.926811 478.948321 880.227471 704.705885 712.158049 815.089208zM578.553224 330.361553l18.979171-12.489038c-63.430709-27.968337-139.099225-24.223362-201.534202 16.73239-62.180682 40.955752-95.647504 108.884107-95.147085 178.307594l19.227338-12.735162c3.245577-58.685916 33.467844-115.128116 86.410171-150.089047C459.430944 315.374504 523.362073 310.134398 578.553224 330.361553zM426.714751 703.709131c63.429688 27.972422 139.099225 24.225404 201.530117-16.729326 62.18681-40.955752 95.647504-108.885129 95.149127-178.310658l-19.226317 12.734141c-3.248641 58.687959-33.46478 115.128116-86.407107 150.092111-52.945391 34.710722-116.875499 39.958998-172.066649 19.727757L426.714751 703.709131zM350.045396 318.123746l12.987415-34.213366 36.458105 1.74534-28.467735-22.973334 12.985372-34.212345-30.715537 19.976946-28.718966-22.973334 9.738774 35.709518-30.71758 19.977967 36.711378 1.750447L350.045396 318.123746zM314.585067 353.834286l-35.462372-8.489768-2.748222-36.463211-19.228359 31.217999-35.461351-8.740999 23.723964 27.72017-19.230402 31.216978 33.713968-13.98519 23.724985 27.968337-2.7472-36.459126L314.585067 353.834286zM446.441487 267.427179l26.225039-25.473389 32.464962 16.979536-16.234013-32.71313 26.221975-25.471346-36.210959 5.244191-16.232992-32.965382-6.241966 35.96177-36.213001 5.244191 32.467005 16.981578L446.441487 267.427179zM555.326616 262.431155l34.713786-11.985555 22.22679 28.969176-0.750629-36.460147 34.713786-12.238828-35.213184-10.48736-0.747565-36.46219-21.22493 29.718783-34.962974-10.488382 22.225769 29.218364L555.326616 262.431155zM231.174348 459.221585l-17.979353-31.966586-4.246416 36.46219-35.962792 7.241783 33.213549 15.233174-4.244373 36.46219 24.971948-26.970562 33.21457 15.234196-17.980375-31.966586 24.975012-26.969541L231.174348 459.221585zM674.200728 703.458922l-12.988436 34.213366-36.460147-1.748404 28.469777 22.976398-12.985372 34.212345 30.715537-19.978988L699.672075 796.109016l-9.736731-35.711561 30.715537-19.981031-36.710357-1.746361L674.200728 703.458922zM798.063715 631.287214l-33.713968 13.986211-23.722942-27.972422 2.745158 36.464232-33.71499 13.983147 35.466457 8.490789 2.744136 36.459126 19.22938-31.216978 35.465436 8.743041-23.723964-27.721191L798.063715 631.287214zM577.552385 754.152426 551.333474 779.627857l-32.467005-16.9826 16.234013 32.71313-26.221975 25.473389 36.207895-5.245212 16.234013 32.965382 6.240945-35.96177 36.214023-5.24317-32.463941-16.984642L577.552385 754.152426zM468.919509 759.149471l-34.713786 11.983512-22.225769-28.965091 0.749608 36.463211-34.713786 12.233722 35.211141 10.490424 0.752672 36.458105 21.225952-29.963887 34.960932 10.48736-22.225769-29.218364L468.919509 759.149471zM818.041682 535.3895l4.246416-36.459126-24.975012 26.968519-33.212528-15.232153 17.979353 31.964543-24.972969 26.971583 35.963813-7.242805 17.980375 31.965564 4.245395-36.461169 35.958707-7.243826L818.041682 535.3895zM466.671706 599.135779l-9.09742-27.610894-17.384978 4.805047 8.664404 25.002586c2.107889 5.998905-0.12153 9.26695-5.159426 12.323593l-69.138554 41.965782c-2.379545 1.444067-5.303424 0.728161-6.747491-1.652405l-24.634931-40.586054 79.636127-48.334384c3.778677-2.29478 5.127767-7.326548 2.749243-11.24616l-34.744424-57.24287c-2.293759-3.777656-7.466461-5.044023-11.24616-2.751285l-94.190161 57.169339 4.232118 14.862455 85.653415-51.989488c1.959806-1.189773 4.434328-0.583142 5.62308 1.375643l23.616731 38.908117c1.103986 1.818871 0.498377 4.293394-1.461429 5.481124l-67.598488 41.031325-13.506217-22.254365-15.535468 9.429331 49.355648 81.316106c3.737826 6.158222 11.834408 8.137432 17.99263 4.400627l86.354002-52.414334C468.218922 616.199059 469.979581 609.002211 466.671706 599.135779zM498.525953 602.401782c20.775574-22.569935 27.735489-50.543378 16.254438-77.661002l21.273951-12.912862 22.595467 37.226095c3.653061 6.01933 10.62421 7.72382 16.783453 3.984972l31.909395-19.36623c7.557354-4.588539 9.158696-10.156471 5.155341-18.643175l-7.778968-16.919281-16.140057 6.540175 7.175401 14.030125c1.674873 3.389575 0.924244 4.993981-2.29478 6.946638l-16.514861 10.023706c-2.379545 1.44611-4.797898 0.615822-6.158222-1.62381l-19.1967-31.63059 39.747596-24.126342-7.730969-12.736184-124.841358 75.773706 4.092205 14.946199 36.38968-22.086877c7.068168 20.796 1.333771 41.324428-16.628221 59.693904L498.525953 602.401782zM461.939169 497.631326l4.37101 14.775648 84.254283-51.139796-7.729947-12.736184L461.939169 497.631326zM445.29665 482.835252l89.152265-54.112696c1.959806-1.188751 4.434328-0.584163 5.62308 1.374621l9.259801 15.255642 15.534447-9.427288-14.865519-24.492975c-2.29478-3.780719-7.382718-4.90411-11.161395-2.610351l-48.984929 29.73206-7.474631-12.317466-14.376334 11.023524 6.456431 10.636465-48.845016 29.649337c-3.778677 2.29478-5.128788 7.324506-2.834008 11.105225l14.865519 24.490933 15.534447-9.42831-9.259801-15.255642C442.732256 486.498526 443.337866 484.026046 445.29665 482.835252zM638.088832 330.961035l-15.255642 9.260822c3.992121 6.57694 8.239558 13.575663 12.711673 20.629533l-58.222263 35.338799c-3.91859 2.378524-4.619177 8.163985-2.240653 12.083596l27.693617 45.625992c14.101614 23.232736 21.170803 44.03282 21.068677 62.47787l18.493049-2.030273c-0.331911-21.057443-8.311047-43.985842-23.347117-68.758644l-5.605718-9.236312 19.313124-11.722069c1.959806-1.189773 4.434328-0.585184 5.537294 1.234708l16.735454 27.573108c2.208994 3.6357 2.419374 6.191924-1.80968 8.374365l-12.600356 6.691322 7.729947 12.735162 18.508368-9.894006c10.332128-5.69559 11.327861-14.153698 6.146988-22.688402l-24.976033-41.147749c-2.378524-3.91859-7.466461-5.044023-11.245138-2.750264l-31.069916 18.858662-10.024728-16.514861c-1.102965-1.819893-0.583142-4.433307 1.375643-5.624101l46.465471-28.201185c15.112665 23.00193 31.907352 45.942584 47.885028 62.481955-1.866871 13.963743-4.998066 27.738552-9.677498 40.538055l17.571869 4.655943c3.34464-10.263704 6.069372-20.921615 8.036327-31.880799 14.229272 9.556989 26.222997 10.702847 34.591234 5.241127 9.627456-6.224604 11.002077-17.211363 4.627347-34.025454l-7.799393-20.737787-16.884558 3.736805 8.873763 22.191046c6.085712 15.076921-3.221067 18.042672-20.482471 2.857497 2.406098-23.48703 1.83419-47.462225-0.915053-69.348934l-17.708718 1.747383c1.905679 16.079802 2.723711 33.202315 2.027209 50.668994-11.268627-12.884267-22.552574-28.636244-34.891486-47.38563l40.448183-24.550166-7.645183-12.595249-13.01601 7.899477 2.025167-10.231023-25.734832-2.956559-2.705328 14.474375 19.418314 2.961666-20.714298 12.572782C646.668471 345.096351 642.505799 338.238563 638.088832 330.961035z" p-id="12246" fill="#8a8a8a"></path></svg>