<?xml version="1.0" standalone="no"?><!DOCTYPE svg PUBLIC "-//W3C//DTD SVG 1.1//EN" "http://www.w3.org/Graphics/SVG/1.1/DTD/svg11.dtd"><svg t="1497407538492" class="icon" style="" viewBox="0 0 1024 1024" version="1.1" xmlns="http://www.w3.org/2000/svg" p-id="5849" xmlns:xlink="http://www.w3.org/1999/xlink" width="200" height="200"><defs><style type="text/css"></style></defs><path d="M81.325 737.298c0 7.438-4.264 13.849-10.468 16.999h880.179c-6.199-3.153-10.454-9.569-10.454-16.999 0-10.433 8.36-18.897 18.741-19.092v-19.141c-10.383-0.195-18.741-8.655-18.741-19.084 0-10.434 8.36-18.891 18.741-19.087v-19.147c-10.383-0.195-18.741-8.657-18.741-19.086 0-10.433 8.36-18.893 18.741-19.089v-19.143c-10.383-0.195-18.741-8.657-18.741-19.084 0-10.434 8.36-18.891 18.741-19.086v-19.147c-10.383-0.195-18.741-8.655-18.741-19.085s8.36-18.89 18.741-19.089v-19.143c-10.383-0.195-18.741-8.655-18.741-19.086 0-10.432 8.36-18.891 18.741-19.089v-19.141c-10.383-0.195-18.741-8.657-18.741-19.089 0-10.431 8.36-18.89 18.741-19.086v-15.533c-0.002 0-0.002 0-0.004 0-11.279 0-20.425-9.145-20.425-20.425 0-5.414 2.119-10.322 5.559-13.977h-864.507c3.438 3.655 5.559 8.563 5.559 13.977 0 11.279-9.144 20.425-20.425 20.425-0.725 0-1.44-0.041-2.146-0.115v15.666c10.219 0.378 18.394 8.753 18.394 19.067s-8.174 18.694-18.394 19.072v19.174c10.219 0.378 18.394 8.758 18.394 19.072s-8.174 18.69-18.394 19.067v19.179c10.219 0.378 18.394 8.757 18.394 19.071 0 10.312-8.174 18.688-18.394 19.065v19.183c10.219 0.378 18.394 8.754 18.394 19.070 0 10.309-8.174 18.69-18.394 19.067v19.177c10.219 0.378 18.394 8.755 18.394 19.071 0 10.312-8.174 18.692-18.394 19.070v19.178c10.219 0.378 18.394 8.754 18.394 19.070 0 10.311-8.174 18.69-18.394 19.067v19.177c10.219 0.375 18.393 8.754 18.393 19.069z" fill="#1296db" p-id="5850" class=""></path></svg>