<?xml version="1.0" standalone="no"?><!DOCTYPE svg PUBLIC "-//W3C//DTD SVG 1.1//EN" "http://www.w3.org/Graphics/SVG/1.1/DTD/svg11.dtd"><svg t="1497413618629" class="icon" style="" viewBox="0 0 2513 1024" version="1.1" xmlns="http://www.w3.org/2000/svg" p-id="10608" xmlns:xlink="http://www.w3.org/1999/xlink" width="1227.05078125" height="500"><defs><style type="text/css"></style></defs><path d="M2509.012321 235.759582C2492.472235 248.197413 2472.616267 260.871156 2470.663436 283.67603 2465.980136 311.753985 2488.383085 333.846752 2511.559302 345.275402 2511.620465 358.600089 2514.106283 372.523294 2510.073927 385.494112 2495.971603 398.049899 2476.648623 407.704836 2472.262398 427.726817 2464.437967 452.484522 2479.90771 477.416977 2500.947609 489.859176 2519.501689 499.099082 2510.611284 522.139868 2510.90399 538.548892 2489.628178 549.029523 2469.178061 567.863204 2470.248404 593.573296 2469.772211 619.161064 2490.930066 636.5749 2511.436977 647.588518 2511.913171 661.507355 2512.26704 675.487355 2512.625277 689.406191 2493.717328 702.674084 2471.135261 718.017134 2470.366361 743.718489 2467.640261 770.669306 2489.392266 790.630124 2511.380184 801.709273 2511.913171 815.571316 2512.26704 829.485784 2512.446159 843.404621 2490.873272 857.030752 2466.928155 876.751288 2470.423154 905.305437 2471.253217 929.586948 2492.354278 943.387829 2510.073927 956.004778 2515.58729 976.673334 2513.691252 1003.80327 2494.311478 1016.892044 2485.18516 1024.532987 2472.677429 1023.467013 2461.650705 1024 1860.41899 1023.467013 1259.126114 1024.240281 657.833237 1023.584969 652.560156 1008.128332 649.419025 990.181508 635.784156 979.51739 616.522339 963.173897 585.469265 963.23069 566.325404 979.753302 552.629373 990.299464 549.724154 1008.364245 544.512236 1023.764088 381.3438 1023.882044 218.170996 1023.882044 55.059354 1023.820881 41.54681 1024.773269 28.331342 1018.731288 20.327793 1007.831257 8.1783 993.082358 12.149493 972.763303 11.970374 955.174716 34.670398 941.84566 56.837435 918.276255 49.253285 889.726475 46.645141 869.350626 28.09543 858.865627 14.281443 846.427796 8.768081 832.211884 12.385406 816.217891 12.149493 801.351036 25.723199 790.866036 42.494829 781.272262 47.475204 763.683675 56.129697 740.817639 45.164135 713.810028 24.416943 701.551316 4.084781 691.184273 13.394587 665.356224 12.031537 647.173487 25.662036 636.985563 42.31571 627.570907 47.178129 610.039114 56.54036 586.998328 45.04181 560.165466 24.534899 547.430561 6.2211 537.954742 11.022356 515.149869 12.503362 498.330182 26.020274 483.878358 47.178129 473.690433 49.314448 451.654459 56.54036 422.868767 33.901498 400.181849 11.795624 386.145056 11.673299 372.466501 11.734462 358.722414 12.031537 345.039489 28.685211 333.309396 47.59316 319.805591 49.965391 297.712823 54.766647 270.997918 34.731561 248.848357 12.800437 237.004676 11.376224 222.251408 11.258268 207.388921 12.739274 192.696816 34.849517 180.735179 54.941397 158.642411 49.72511 131.630431 47.711116 109.362913 28.86433 95.679989 11.970374 84.129015 11.616506 63.753166 8.296256 39.292536 24.77518 23.83153 37.339704 10.978668 56.662685 12.813543 73.019284 12.280556 230.499607 13.525649 388.036725 10.799549 545.460255 13.643606 551.681354 39.764361 571.537322 65.173009 600.755521 64.465272 630.157207 65.885116 650.838868 40.472098 656.767262 14.001843 665.71883 13.346531 674.66603 12.695587 683.674392 12.459674 1276.491894 12.516468 1869.309396 12.516468 2462.126899 12.459674 2476.58746 12.280556 2492.411072 15.063449 2502.192703 26.854705 2516.478515 42.193385 2511.620465 64.757978 2511.262227 83.770777 2489.510222 95.321752 2468.112086 115.164613 2470.423154 142.115431 2471.314379 167.580873 2493.302297 183.28216 2512.507321 196.135022 2511.201065 209.10584 2515.233421 224.033858 2509.012321 235.759582ZM622.393938 582.315028C623.044882 569.584491 609.230895 566.028329 600.641933 560.580498 587.775965 565.259429 573.551316 579.117103 582.031059 593.512134 590.327315 614.067101 626.539882 604.827195 622.393938 582.315028ZM591.157377 489.029114C581.493703 493.293013 576.277416 507.334175 582.205809 516.687669 588.964265 534.638861 622.629851 530.195843 622.393938 509.819994 625.530701 492.052288 605.674733 483.341001 591.157377 489.029114ZM583.512065 674.779617C592.75634 691.835216 622.926926 683.95836 622.450732 664.591693 623.931738 648.475375 605.556777 636.74965 591.275334 643.975562 580.484522 649.663675 575.687634 664.648486 583.512065 674.779617ZM596.902283 720.917984C583.153828 723.700877 573.970716 741.708864 583.092665 753.552544 590.681184 767.947575 615.692276 765.994744 620.85177 750.35462 627.964094 735.426602 612.84822 717.064746 596.902283 720.917984ZM583.332947 444.782416C591.751527 458.229428 615.102495 456.92754 620.85177 441.702447 628.082051 426.660842 612.966176 408.058705 596.784327 412.265811 582.502884 414.57688 574.027509 433.174648 583.332947 444.782416ZM590.737977 340.299396C579.658828 345.987508 575.508516 362.925151 584.757159 372.283013 594.71354 386.083894 621.266801 379.513294 622.332776 361.920339 625.709819 345.275402 605.202908 330.526503 590.737977 340.299396ZM583.394109 218.817571C591.633571 234.278576 618.837776 230.193795 621.856582 213.015871 626.181644 198.205809 611.721083 182.155022 596.430458 186.833953 582.441722 189.145022 574.503703 207.327759 583.394109 218.817571ZM590.79914 110.603638C581.611659 115.225776 576.578859 128.668419 581.790778 138.03065 589.139015 156.449299 622.450732 151.652411 622.511895 130.979487 625.058876 113.862726 604.966995 103.735964 590.79914 110.603638ZM619.484351 273.728387C614.626301 262.234206 601.467627 262.352162 591.096215 264.545275 577.046316 272.360968 575.272603 294.632854 590.502065 302.094679 606.980989 314.890747 631.756169 290.783986 619.484351 273.728387ZM590.921465 802.714086C581.554865 807.930373 575.923547 821.311854 582.266972 830.909997 589.558415 848.380627 622.092495 843.880815 622.393938 823.919997 626.063688 807.572136 604.254889 792.582955 590.921465 802.714086ZM621.681832 898.075156C618.536332 884.750469 602.122939 882.500563 591.096215 886.410594 576.456534 892.863238 575.923547 916.498174 590.737977 923.427011 606.268883 933.614936 628.200007 915.432199 621.681832 898.075156ZM2302.21755 91.119014C1810.038568 91.119014 1317.807161 91.175808 825.628178 91.057852 821.595822 91.411721 813.596642 92.123827 809.564285 92.420902 788.760299 96.151814 775.662787 117.117444 777.082631 137.4365 777.082631 390.352162 776.907881 643.324619 777.204956 896.301444 776.195775 919.224274 796.405611 941.552954 819.878904 939.953992 1302.097136 940.128742 1784.319738 939.953992 2266.476808 940.071948 2284.25762 939.836035 2302.21755 941.137923 2319.880405 938.647735 2340.090242 931.718898 2351.76791 910.512987 2349.570429 889.665313 2349.395679 638.885969 2349.749548 388.041094 2349.395679 137.257381 2352.121779 110.84392 2328.35578 88.157002 2302.21755 91.119014Z" p-id="10609" fill="#8a8a8a"></path></svg>