<?xml version="1.0" encoding="iso-8859-1"?>
<!-- Generator: Adobe Illustrator 19.1.0, SVG Export Plug-In . SVG Version: 6.00 Build 0)  -->
<svg version="1.1" id="Capa_1" xmlns="http://www.w3.org/2000/svg" xmlns:xlink="http://www.w3.org/1999/xlink" x="0px" y="0px"
	 viewBox="0 0 513.32 513.32" style="enable-background:new 0 0 513.32 513.32;" xml:space="preserve">
<g>
	<g>
		<g>
			<path d="M299.437,342.213c-23.527,0-42.777,19.249-42.777,42.777c0,23.527,19.249,42.777,42.777,42.777
				c23.527,0,42.777-19.249,42.777-42.777C342.213,361.463,322.964,342.213,299.437,342.213z"/>
			<path d="M320.825,278.048c0-23.527-19.249-42.777-42.777-42.777s-42.777,19.249-42.777,42.777s19.249,42.777,42.777,42.777
				S320.825,301.576,320.825,278.048z"/>
			<path d="M256.66,0C115.497,0,0,115.497,0,256.66s115.497,256.66,256.66,256.66s256.66-115.497,256.66-256.66S397.823,0,256.66,0z
				 M256.66,470.543c-117.636,0-213.883-96.247-213.883-213.883S139.024,42.777,256.66,42.777s213.883,96.247,213.883,213.883
				S374.296,470.543,256.66,470.543z"/>
			<path d="M384.99,256.66c-23.527,0-42.777,19.249-42.777,42.777c0,23.527,19.249,42.777,42.777,42.777
				c23.527,0,42.777-19.249,42.777-42.777S408.517,256.66,384.99,256.66z"/>
		</g>
	</g>
</g>
<g>
</g>
<g>
</g>
<g>
</g>
<g>
</g>
<g>
</g>
<g>
</g>
<g>
</g>
<g>
</g>
<g>
</g>
<g>
</g>
<g>
</g>
<g>
</g>
<g>
</g>
<g>
</g>
<g>
</g>
</svg>
