<?xml version="1.0" encoding="UTF-8"?>
<!DOCTYPE svg PUBLIC "-//W3C//DTD SVG 1.1//EN" "http://www.w3.org/Graphics/SVG/1.1/DTD/svg11.dtd">
<!-- Creator: CorelDRAW -->
<svg xmlns="http://www.w3.org/2000/svg" xml:space="preserve" width="200px" height="2000px" style="shape-rendering:geometricPrecision; text-rendering:geometricPrecision; image-rendering:optimizeQuality; fill-rule:evenodd; clip-rule:evenodd"
viewBox="0 0 200 2000.01"
 xmlns:xlink="http://www.w3.org/1999/xlink">
 <defs>
  <style type="text/css">
   <![CDATA[
    .fil0 {fill:#1F1A17;fill-rule:nonzero}
   ]]>
  </style>
 </defs>
 <g id="图层_x0020_1">
  <metadata id="CorelCorpID_0Corel-Layer"/>
  <path class="fil0" d="M158.2 99.7803c0,16.8001 -5.43311,31.2333 -16.3336,43.2665 -11.2336,12.4997 -25.2002,18.7667 -41.8669,18.7667 -16.6667,0 -30.6002,-6.26698 -41.8007,-18.7667 -10.9336,-12.0332 -16.3997,-26.4664 -16.3997,-43.2665 0,-16.8332 5.46618,-31.2333 16.3997,-43.1342 11.2005,-12.3332 25.1341,-18.4667 41.8007,-18.4667 16.6667,0 30.6002,6.13351 41.7995,18.4667 10.9336,11.967 16.4009,26.3671 16.4009,43.1342zm-36.2341 0c0,-6.70045 -1.96655,-12.534 -5.86658,-17.4675 -4.16696,-5.26658 -9.53275,-7.89927 -16.0997,-7.89927 -6.73352,0 -12.1336,2.59963 -16.2332,7.80006 -3.83389,4.83311 -5.76737,10.6666 -5.76737,17.5667 0,6.79966 1.93348,12.6662 5.76737,17.7001 4.16578,5.40004 9.56582,8.10006 16.2332,8.10006 6.36619,0 11.7001,-2.76734 16.0005,-8.30085 3.96617,-5.06579 5.9658,-10.8993 5.9658,-17.4994z"/>
  <path class="fil0" d="M125.449 356.549c0,1.23308 -0.565752,2.36695 -1.66655,3.40042 -1.09961,1.03229 -2.29962,1.56615 -3.60003,1.56615 -3.13349,0 -7.83313,0.0330711 -14.0659,0.100394 -6.26698,0.0661423 -10.9336,0.0992134 -14.067,0.0992134 -2.40002,0 -3.60003,-1.03347 -3.53389,-3.13349l0.100394 -1.06654c0.933078,-24.8659 1.36655,-39.9334 1.36655,-45.233l0 -28.9998c0,-1.80001 -0.400397,-2.73427 -1.26615,-2.73427 -1.3004,0 -3.26695,0.400397 -5.90083,1.16694 -2.6327,0.799613 -4.6335,1.20001 -6.00005,1.20001 -2.03269,0 -3.03309,-1.23308 -3.03309,-3.6331 0,-2.20041 -0.0330711,-5.53351 -0.100394,-9.9674 -0.0661423,-4.39964 -0.0992134,-7.76581 -0.0992134,-10.0324 0,-1.3004 0.832684,-2.30081 2.43309,-2.93388 9.60008,-3.96617 17.1001,-9.33314 22.5663,-16.0336 1.1008,-1.36655 2.06695,-2.03269 2.83349,-2.03269 0.133466,0 0.533862,0.0661423 1.16694,0.199608 2.50041,0.49961 6.16658,1.33348 11.0339,2.43309 2.59963,0.333073 6.43233,0.900007 11.4332,1.76694 0.900007,0.23386 1.36655,0.966149 1.36655,2.13309 0,0.400397 -0.0673234,1.06654 -0.199608,2.06695 -0.700399,5.70004 -1.06772,19.7328 -1.06772,42.0665 0,7.50006 0.0342522,18.7667 0.133466,33.8011 0.100394,15.0332 0.166537,26.2998 0.166537,33.7999z"/>
  <path class="fil0" d="M149.817 530.951c0,1.50001 -0.166537,3.73349 -0.49961,6.73352 -0.333073,3.00002 -0.49961,5.26658 -0.49961,6.83391 0,1.56615 -0.0342522,4.0335 -0.0673234,7.36659 -0.0661423,3.36617 -0.0992134,5.86658 -0.0992134,7.50006 0,1.60041 -1.1008,2.43309 -3.23388,2.43309 -0.799613,0 -3.83389,-0.633076 -9.16661,-1.86616 -5.9339,-1.3004 -16.9997,-1.93348 -33.2341,-1.93348 -4.99965,0 -12.5328,0.266931 -22.5332,0.799613 -10.0335,0.566934 -17.4994,0.833865 -22.3667,0.833865 -1.69962,0 -2.6327,-0.800794 -2.83349,-2.43309 -0.199608,-2.20041 -0.699218,-5.50044 -1.46694,-9.86701 -1.6323,-6.63312 -2.43309,-10.4339 -2.43309,-11.4332 0,-1.43387 2.73309,-2.50041 8.20046,-3.20081 6.36619,-0.866936 10.467,-2.03269 12.3001,-3.5327 6.56698,-5.53351 13.2993,-12.534 20.1994,-21.0002 8.80046,-10.6666 13.2001,-18.6675 13.2001,-24.0002 0,-4.6335 -1.66655,-8.53353 -5.03272,-11.667 -3.36735,-3.16656 -7.33352,-4.7339 -11.967,-4.7339 -5.20043,0 -10.3666,1.03347 -15.5328,3.10042 -3.43349,1.3004 -7.06659,3.19963 -10.8343,5.66697 -3.19963,2.03269 -4.93232,3.03309 -5.26658,3.03309 -2.23348,0 -3.3331,-2.59963 -3.3331,-7.80006 0,-4.0335 -0.166537,-6.9662 -0.466539,-8.80046 -0.133466,-0.832684 -0.633076,-2.59963 -1.46694,-5.26658 -0.799613,-2.29962 -1.20001,-3.96617 -1.20001,-5.10004 0,-0.832684 0.566934,-1.6323 1.66655,-2.43309 5.40004,-3.83271 12.6344,-6.86698 21.7006,-9.06621 8.06699,-1.96655 15.9001,-2.93388 23.5336,-2.93388 12.3662,0 22.6998,2.73309 31.0337,8.20046 9.83275,6.36619 14.7663,15.4667 14.7663,27.2329 0,15.7005 -11.8997,34.0337 -35.6672,55.0008 16.8675,-0.866936 30.1006,-1.26733 39.6676,-1.26733 1.93348,0 2.9327,1.20001 2.9327,3.60003z"/>
  <path class="fil0" d="M145.701 725.486c0,12.0343 -4.96657,21.3344 -14.9328,27.8341 -8.46739,5.59965 -19.0336,8.40007 -31.7341,8.40007 -9.76661,0 -17.8005,-0.700399 -24.1337,-2.06695 -13.7328,-2.86656 -20.5998,-5.40004 -20.5998,-7.60045 0,-0.399216 0.133466,-0.966149 0.400397,-1.76576 0.900007,-2.40002 2.2323,-6.00005 3.99924,-10.8343 0.500791,-2.40002 1.43387,-6.00005 2.73309,-10.7328 0.566934,-1.63348 1.56734,-2.46734 2.93388,-2.46734 -0.199608,0 2.70002,1.1008 8.73314,3.23388 6.03312,2.16616 10.9666,3.23388 14.8005,3.23388 12.7666,0 19.1328,-4.26736 19.1328,-12.8009 0,-6.83273 -6.06619,-10.2662 -18.1667,-10.2662 -1.63348,0 -3.76657,0.0661423 -6.43352,0.199608 -2.66577,0.133466 -4.43271,0.200789 -5.26658,0.200789 -3.99924,0 -6.16658,-0.0342522 -6.5658,-0.100394 -2.86774,-0.333073 -4.30043,-1.43387 -4.30043,-3.30003 0,-9.9674 0.400397,-16.2332 1.16694,-18.7667 0.532681,-1.63348 1.56615,-2.43309 3.13349,-2.43309 2.2323,0 5.49926,0.26575 9.83275,0.832684 4.3335,0.533862 7.5662,0.833865 9.70047,0.833865 2.79923,0 5.13311,-0.934259 6.99927,-2.80042 1.83427,-1.83309 2.76734,-4.20003 2.76734,-7.06659 0,-7.69967 -5.60083,-11.5336 -16.8001,-11.5336 -4.66657,0 -11.0339,1.26615 -19.0336,3.79964 -0.333073,0.0673234 -0.633076,0.100394 -0.866936,0.100394 -0.866936,0 -1.56615,-0.900007 -2.16616,-2.73309 -0.133466,-2.73309 -0.333073,-5.86658 -0.566934,-9.3674 -0.0661423,-0.766541 -0.266931,-2.3327 -0.600005,-4.69964 -0.266931,-1.86616 -0.400397,-3.40042 -0.400397,-4.56618 0,-3.46656 5.3339,-6.13351 16.0336,-8.03392 7.33352,-1.3004 14.4674,-1.93348 21.3675,-1.93348 11.0658,0 20.7663,2.43309 29.1002,7.33352 10.0997,5.83351 15.1324,13.9666 15.1324,24.3002 0,11.8997 -5.40004,20.9671 -16.2001,27.1337 6.40044,2.16616 11.4343,5.76619 15.2009,10.8662 3.73349,5.06697 5.59965,10.9336 5.59965,17.5667z"/>
  <path class="fil0" d="M151.417 939.173c0,0.966149 -0.800794,1.6323 -2.43427,1.9323 -1.16576,0.200789 -2.79923,0.23386 -4.86618,0.100394 -2.9327,-0.199608 -4.20003,-0.266931 -3.73349,-0.266931 -2.53348,0 -3.79964,1.26733 -3.79964,3.80082 0,1.56615 0.100394,3.90003 0.300002,7.06659 0.199608,3.16656 0.266931,5.53351 0.266931,7.09966 0,2.26655 -1.0004,3.40042 -3.00002,3.40042 -22.4671,0 -34.3007,-0.266931 -35.4676,-0.833865 -1.16694,-0.532681 -1.76694,-1.23308 -1.76694,-2.10002 0,-0.966149 0.433468,-3.36617 1.23426,-7.23313 0.799613,-3.83389 1.23308,-6.63312 1.23308,-8.367 0,-2.16616 -1.20001,-3.2327 -3.6331,-3.2327 -4.36657,0 -10.8674,0.133466 -19.5675,0.399216 -8.70007,0.23386 -15.2328,0.367326 -19.5663,0.367326 -5.23351,0 -7.83313,-2.03387 -7.83313,-6.13351 0,-2.10002 -0.0342522,-5.20043 -0.100394,-9.33314 -0.0661423,-4.13389 -0.100394,-7.23313 -0.100394,-9.33314 0,-1.93348 1.03347,-4.00043 3.03428,-6.13351 9.49968,-10.167 16.4328,-18.3001 20.7994,-24.4337 2.10002,-2.93388 9.16661,-14.367 21.1998,-34.2676 1.56734,-3.00002 4.10082,-7.09966 7.60045,-12.3001 0.933078,-1.13269 1.90041,-1.66655 2.93388,-1.66655 1.56615,0 6.39926,1.16694 14.4993,3.50081 8.10006,2.36577 13.6336,3.5327 16.5675,3.5327 2.06695,0 3.13349,1.33348 3.13349,4.00043 0,2.53348 -0.300002,6.36619 -0.900007,11.4662 -0.566934,5.10004 -0.866936,8.967 -0.866936,11.5666l0 41.1346c1.23308,0 3.36617,-0.200789 6.43352,-0.600005 2.73309,-0.400397 4.86618,-0.566934 6.36619,-0.566934 1.23308,0 1.83309,0.73347 1.83309,2.23348 0,1.36655 -0.0661423,3.39924 -0.232679,6.16658 -0.166537,2.73309 -0.23386,4.80004 -0.23386,6.23273 0,1.43387 0.100394,3.56696 0.333073,6.40044 0.23386,2.83349 0.334255,4.96657 0.334255,6.40044zm-48.2342 -61.7343c0,-0.366145 -0.232679,-0.566934 -0.699218,-0.566934 -0.566934,0 -1.16694,0.400397 -1.73387,1.26733 -4.16696,6.69927 -8.33392,13.3997 -12.4997,20.1002 -5.0339,7.76699 -9.90008,13.9666 -14.667,18.6663 3.60003,0 12.7005,-0.466539 27.3664,-1.36655 0.100394,-2.59963 0.566934,-9.03314 1.36655,-19.2332 0.566934,-8.10006 0.866936,-14.367 0.866936,-18.8671z"/>
  <path class="fil0" d="M146.484 1117.78c0,29.1002 -17.934,43.6669 -53.8339,43.6669 -5.20043,0 -12.1666,-0.566934 -20.901,-1.66655 -11.2997,-1.43387 -17.2667,-3.16656 -17.8667,-5.16736 -0.26575,-0.865755 -0.366145,-3.73349 -0.366145,-8.70007 0,-2.73309 0.300002,-6.36619 0.966149,-10.9336 0.833865,-5.86658 1.83427,-8.79928 2.93388,-8.79928 0.300002,0 0.866936,0.199608 1.66655,0.600005 7.80006,3.90003 16.6997,5.86658 26.6329,5.86658 14.4001,0 21.6002,-4.69964 21.6002,-14.067 0,-5.13311 -2.6327,-9.03314 -7.89927,-11.6328 -4.13389,-2.06695 -9.03314,-3.13349 -14.7674,-3.13349 -2.40002,0 -6.00005,0.300002 -10.8001,0.900007 -4.76579,0.566934 -8.36581,0.866936 -10.7658,0.866936 -2.30081,0 -3.43349,-1.03347 -3.43349,-3.13349 0,-6.23391 0.266931,-15.7667 0.832684,-28.6006 0.566934,-12.834 0.833865,-22.3667 0.833865,-28.6006 0,-1.23308 0.466539,-2.5323 1.39962,-3.86578 0.96733,-1.33348 2.0008,-2.13427 3.20081,-2.40002 1.43269,-0.266931 10.4658,-0.400397 27.1325,-0.400397 18.9344,0 31.6668,0.0661423 38.2007,0.199608 1.73387,0.0673234 2.63388,0.833865 2.63388,2.26655 0,3.70042 -0.400397,8.76739 -1.16694,15.234 -1.0004,8.2666 -2.16734,12.4005 -3.53389,12.4005l-1.06654 -0.100394c-14.7332,-1.3004 -23.8998,-1.96655 -27.5329,-1.96655 -7.16699,0 -11.0009,0.399216 -11.5336,1.16694 -1.1008,1.96655 -1.66655,5.63272 -1.66655,11.0328 0,0.866936 0.166537,1.50001 0.49961,1.96655 1.63348,0 4.20003,-0.166537 7.69967,-0.49961 3.3331,-0.300002 5.90083,-0.466539 7.73392,-0.466539 12.0993,0 22.1671,3.19963 30.1668,9.66622 8.667,6.90005 13.0005,16.3336 13.0005,28.3006z"/>
  <path class="fil0" d="M151.218 1316.41c0,14.5997 -4.83429,25.9667 -14.4674,34.0999 -9.03314,7.6666 -21.0332,11.5005 -35.933,11.5005 -16.0005,0 -28.7672,-5.20043 -38.2668,-15.6001 -9.20086,-10.0335 -13.767,-23.1333 -13.767,-39.2672 0,-20.3671 7.76699,-37.1672 23.334,-50.4004 14.7663,-12.4997 32.5325,-18.7336 53.3,-18.7336 1.23308,0 2.16616,0.767723 2.73309,2.33388 5.0339,12.834 7.53313,19.8663 7.53313,21.1006 0,3.00002 -1.43269,4.50004 -4.29925,4.50004 -7.66778,0 -14.7674,0.966149 -21.3002,2.89963 -8.43432,2.50041 -14.2005,6.26698 -17.2679,11.3328 -0.732289,1.16694 -1.06654,2.06695 -1.06654,2.63388 0,0.400397 0.166537,0.600005 0.566934,0.600005 0.266931,0 0.766541,-0.133466 1.46694,-0.400397 5.66697,-2.53348 11.8666,-3.79964 18.5671,-3.79964 11.3328,0 20.5667,3.3331 27.7337,9.96622 7.39966,6.90005 11.1332,15.9674 11.1332,27.2341zm-33.6003 0.400397c0,-4.6335 -1.50001,-8.43432 -4.50004,-11.4674 -3.00002,-3.03309 -6.76659,-4.56618 -11.3339,-4.56618 -4.9335,0 -9.00007,1.43269 -12.1997,4.29925 -3.19963,2.86774 -4.76697,6.76777 -4.76697,11.7343 0,5.33272 1.33348,9.63315 4.00043,12.9001 2.86656,3.49963 6.93313,5.26658 12.1997,5.26658 5.26658,0 9.40047,-1.73387 12.4005,-5.16736 2.79923,-3.3331 4.20003,-7.6666 4.20003,-12.9993z"/>
  <path class="fil0" d="M145.701 1463c0,1.20001 -0.833865,2.60081 -2.53348,4.20003 -3.76657,3.46774 -8.06699,9.73354 -12.9001,18.8671 -3.96617,7.60045 -7.06659,14.634 -9.36622,21.1006 -5.46737,15.6663 -8.76739,31.2333 -9.9674,46.6669 -0.300002,4.16696 -1.69962,6.60005 -4.20003,7.33352 -1.86616,0.566934 -7.9666,0.866936 -18.2328,0.866936 -6.20084,0 -9.86701,-0.0673234 -11.0339,-0.200789 -5.56658,-0.566934 -8.33274,-2.13309 -8.33274,-4.66657 0,-9.40047 3.03309,-21.2328 9.09928,-35.5668 4.23429,-9.96622 9.86701,-21.0332 16.9005,-33.1999 6.03312,-10.4009 9.06621,-15.5671 9.06621,-15.4336 0,-0.633076 -1.36655,-0.96733 -4.09964,-0.96733 -4.80004,0 -12.0332,0.23386 -21.6663,0.73347 -9.63433,0.500791 -16.8675,0.73347 -21.7006,0.73347 -1.60041,0 -2.43309,-0.832684 -2.43309,-2.43309 0,-1.90041 0.333073,-4.53311 0.966149,-7.93353 0.73347,-3.96617 1.16694,-6.60005 1.3004,-7.89927 0.232679,-2.93388 0.366145,-7.80006 0.366145,-14.634 0,-1.69962 1.46694,-2.56656 4.40082,-2.56656 2.73309,0 6.30005,0.232679 10.6335,0.700399 6.00005,0.633076 9.60008,0.99922 10.7658,1.06654 11.2005,0.865755 30.4006,1.26615 57.6005,1.26615 2.93388,0 4.53311,1.53308 4.80004,4.60043 0.367326,4.6335 0.566934,10.3997 0.566934,17.3659z"/>
  <path class="fil0" d="M146.917 1725.68c0,11.934 -4.70082,21.1998 -14.067,27.8341 -8.33392,5.86658 -18.7005,8.79928 -31.1341,8.79928 -14.4001,0 -25.8002,-3.09924 -34.2003,-9.30007 -9.63315,-6.93313 -14.4332,-17.3328 -14.4332,-31.1329 0,-4.56736 1.26733,-8.967 3.79964,-13.2001 1.76694,-2.90081 4.10082,-5.76737 7.03352,-8.5666 2.46734,-2.36695 3.70042,-3.53389 3.70042,-3.53389 0,-0.700399 -1.0004,-2.13309 -3.03309,-4.30043 -2.60081,-2.59963 -4.50004,-5.03272 -5.76737,-7.33234 -2.06576,-3.76775 -3.09924,-8.06699 -3.09924,-12.867 0,-11.7332 4.83311,-20.634 14.5336,-26.7675 8.13313,-5.06579 18.4324,-7.59927 30.866,-7.59927 10.467,0 20.1002,2.79923 28.8002,8.367 10.0335,6.46659 15.0332,14.6659 15.0332,24.6333 0,5.26658 -1.13269,10.0997 -3.39924,14.4332 -1.43387,2.86656 -3.50081,5.66697 -6.16658,8.40007 -2.20041,2.29962 -3.30003,3.6331 -3.30003,4.00043 0,0.132285 1.26615,1.50001 3.79964,4.09964 3.06617,3.06617 5.46618,6.16658 7.23313,9.30007 2.53348,4.60043 3.80082,9.53275 3.80082,14.7332zm-28.3337 -54.9666c0,-3.33428 -1.46694,-6.06737 -4.46696,-8.20046 -2.73309,-1.90041 -5.83351,-2.83349 -9.30007,-2.83349 -9.10047,0 -13.6666,3.83389 -13.6666,11.5005 0,5.10004 5.83351,9.23275 17.4994,12.3993 0.767723,0.200789 1.36773,0.300002 1.73387,0.300002 2.16616,0 4.09964,-1.69962 5.86658,-5.06579 1.56734,-3.00002 2.33388,-5.70004 2.33388,-8.10006zm-9.46661 56.0331c0,-6.30005 -5.26776,-11.067 -15.8009,-14.2336 -3.46656,-1.13269 -5.33272,-1.66655 -5.56658,-1.66655 -2.29962,0 -4.50004,1.83309 -6.66619,5.46737 -2.0008,3.36617 -3.00002,6.30005 -3.00002,8.79928 0,4.3335 1.63348,7.90046 4.96657,10.6335 3.06617,2.59963 6.79966,3.90003 11.2336,3.90003 9.90008,0 14.8336,-4.30043 14.8336,-12.9001z"/>
  <path class="fil0" d="M151.417 1892.6c0,21.3344 -7.9666,38.5668 -23.8325,51.6677 -14.8678,12.2328 -33.168,18.3332 -55.0008,18.3332 -1.3004,0 -2.29962,-0.866936 -3.03309,-2.63388 -4.60043,-11.3328 -6.93313,-18.6663 -6.93313,-22.0667 0,-2.06576 1.53308,-3.13349 4.59925,-3.13349 20.8336,0 34.3337,-5.33272 40.5334,-15.9993 0.833865,-1.43387 1.26733,-2.46734 1.26733,-3.13349 0,-0.400397 -0.200789,-0.566934 -0.600005,-0.566934 -0.300002,0 -1.06654,0.23386 -2.23348,0.766541 -5.46737,2.53348 -11.667,3.80082 -18.5671,3.80082 -11.367,0 -20.7002,-3.36735 -27.9002,-10.1339 -7.43274,-6.83273 -11.1332,-15.9332 -11.1332,-27.2671 0,-14.7001 4.90043,-25.9998 14.7332,-33.866 8.967,-7.30045 21.0002,-10.9336 36.0334,-10.9336 16.2001,0 29.0341,5.19925 38.4676,15.6001 9.06621,10.0335 13.5993,23.2336 13.5993,39.5661zm-36.6334 -9.36622c0,-4.96657 -1.39962,-9.19968 -4.20003,-12.7005 -3.06617,-3.86578 -6.99927,-5.76619 -11.8336,-5.76619 -10.8001,0 -16.2001,5.66697 -16.2001,16.9997 0,4.60043 1.46694,8.46739 4.40082,11.5666 2.9327,3.10042 6.66619,4.6335 11.2336,4.6335 4.63232,0 8.49928,-1.26615 11.5997,-3.79964 3.3331,-2.80042 4.99965,-6.46659 4.99965,-10.9336z"/>
 </g>
</svg>
