<?xml version="1.0" encoding="UTF-8"?>
<!DOCTYPE svg PUBLIC "-//W3C//DTD SVG 1.1//EN" "http://www.w3.org/Graphics/SVG/1.1/DTD/svg11.dtd">
<!-- Creator: CorelDRAW -->
<svg xmlns="http://www.w3.org/2000/svg" xml:space="preserve" width="200mm" height="20mm" style="shape-rendering:geometricPrecision; text-rendering:geometricPrecision; image-rendering:optimizeQuality; fill-rule:evenodd; clip-rule:evenodd"
viewBox="0 0 200 20"
 xmlns:xlink="http://www.w3.org/1999/xlink">
 <defs>
  <style type="text/css">
   <![CDATA[
    .fil2 {fill:#5B8BC3}
    .fil1 {fill:#75C5F0}
    .fil0 {fill:rgba(255,255,255,.5)}
   ]]>
  </style>
 </defs>
 <g id="图层_x0020_1">
  <metadata id="CorelCorpID_0Corel-Layer"/>
  <path class="fil0" d="M0.0408 4.5613c0,0 4.8252,-3.2379 7.8359,-3.9981 3.0106,-0.7602 5.1552,-0.7884 10.0217,0.9854 4.8665,1.7738 7.7947,4.3923 9.1969,4.5612 1.4022,0.169 5.114,-1.0136 9.4856,-2.4777 4.3716,-1.464 8.0421,-2.6747 11.9601,-3.3223 3.9179,-0.6476 6.5162,-0.1689 8.702,0.4223 2.1858,0.5913 6.5574,2.0835 9.568,3.4068 3.0107,1.3234 5.0315,2.9282 5.0315,2.9282 0,0 4.3716,1.8583 8.0009,0.9855 3.6293,-0.8729 5.279,-1.3797 7.3823,-2.3369 2.1033,-0.9573 4.4128,-1.9428 7.0935,-2.6467 2.6808,-0.7039 4.2067,-0.3941 5.4852,-0.1126 1.2785,0.2816 5.2789,1.4078 5.2789,1.4078 0,0 5.114,2.534 8.2484,2.4214 3.1343,-0.1127 4.9902,-1.0418 9.4443,-2.7874 4.4541,-1.7457 6.0213,-2.6748 8.7433,-2.9001 2.7219,-0.2252 4.5365,0.7321 6.8461,1.9991 2.3095,1.267 6.1037,4.6738 14.3108,4.2233 8.2071,-0.4505 12.1663,-2.4495 16.9504,-4.0825 4.784,-1.6331 7.5472,-2.2243 12.0838,-1.0136 4.5366,1.2107 6.31,2.2243 9.3618,3.2942 3.0519,1.0699 -22.11,4.966 -22.11,4.966l-13.5446 -1.4096 -15.5268 0 -140.567 -0.1128 0.7172 -4.4009z"/>
  <path class="fil1" d="M-3.4844 2.6333c2.9084,0.261 6.9967,1.587 10.3237,2.7768 3.327,1.1897 5.1928,0.2867 8.8462,-0.9877 3.6533,-1.2743 5.1151,-1.9132 10.6731,-0.9332 5.5579,0.9799 7.157,2.3719 11.2039,2.4847 4.0469,0.1128 6.5246,-1.917 9.0023,-2.3117 2.4777,-0.3947 3.5513,-0.5639 8.1763,0.8457 4.625,1.4096 7.0797,1.968 10.5028,1.0951 3.423,-0.8728 6.3924,-2.8155 9.0319,-2.9281 2.6395,-0.1127 5.2789,0.3941 8.702,2.0272 3.423,1.633 5.8563,2.1679 8.8257,1.8582 2.9694,-0.3097 9.1144,-2.5058 12.5375,-2.9845 3.423,-0.4786 8.537,0.1127 12.7024,1.8865 4.1654,1.7738 7.3823,1.4077 8.5783,1.1262 1.196,-0.2816 6.9698,-3.8292 10.8053,-3.8573 3.8355,-0.0282 5.1552,0.9854 6.7224,1.5485 1.5672,0.5631 4.949,1.2952 8.7845,0.5068 3.8355,-0.7883 6.145,-1.9146 9.5268,-1.0136 3.3818,0.901 7.0936,2.9 12.9499,2.9282 5.8563,0.0282 10.1867,-2.3651 14.847,-3.3505 4.6603,-0.9855 8.537,-0.7884 10.8878,0.1408 1.4999,0.5927 2.6806,1.2428 3.339,1.6358l0 10.0035 -31.2186 -0.8684 -175.75 -0.7367 0 -10.8923z"/>
  <path class="fil2" d="M-3.4844 9.5085c3.0976,0.5284 6.6647,1.9974 7.7634,2.0474 1.2388,0.0563 3.8817,0.1127 8.0112,-1.2405 4.1294,-1.3532 6.4419,-1.0713 8.6719,-0.6766 2.2299,0.3947 6.6071,1.9734 9.9107,1.9734 3.3036,0 6.1942,-0.9585 9.0848,-1.6351 2.8906,-0.6766 4.8728,-0.1691 7.7634,0.7894 2.8906,0.9585 7.1027,1.6351 10.9018,0.2819 3.7991,-1.3532 8.0112,-2.5372 11.9755,-1.4096 3.9643,1.1277 5.6983,2.5808 10.0287,2.8342 4.3304,0.2534 7.0523,-1.7457 11.8776,-2.2806 4.8253,-0.535 9.8155,0.5631 12.4962,1.4078 2.6808,0.8446 5.114,0.9573 6.5162,0.8165 1.4023,-0.1408 3.2169,-1.1544 8.4133,-2.6748 5.1965,-1.5204 7.506,0.3379 8.9082,0.7602 1.4023,0.4223 7.1349,2.5622 12.8262,0.7039 5.6914,-1.8583 7.4648,-2.4495 11.1765,-0.8447 3.7118,1.6049 8.7432,2.6185 11.7539,2.5622 3.0106,-0.0563 6.5574,-0.1126 8.9082,-0.901 2.3508,-0.7884 6.1862,-3.0126 10.6403,-2.8437 4.4541,0.1689 7.8772,1.7175 11.3827,2.9845 2.3373,0.8447 5.8655,1.5266 7.9581,1.8873l0 1.8203c-0.8598,-0.065 -2.6178,-0.2164 -4.9474,0.206 -2.3296,0.4224 -7.9184,2.534 -11.3002,3.0126 -3.3818,0.4787 -6.2269,0.6523 -10.9284,-1.1497 -4.7016,-1.802 -7.053,-2.1726 -10.2286,-2.4823 -3.1756,-0.3097 -7.0936,0.8446 -10.4754,2.0272 -3.3818,1.1825 -7.0936,1.633 -12.9087,0.6476 -5.815,-0.9855 -8.207,-2.3933 -13.1561,-2.8719 -4.949,-0.4787 -12.1662,1.4922 -15.3831,2.2806 -3.2169,0.7883 -10.8053,2.4214 -16.9916,2.3087 -6.1862,-0.1126 -13.6097,-3.0408 -17.8164,-4.1388 -4.2066,-1.0981 -7.4788,-0.9235 -9.0873,-0.4449 -1.6084,0.4787 -7.6568,2.7818 -9.5539,3.0915 -1.8971,0.3097 -6.3512,0.6757 -9.4856,0.0282 -3.1344,-0.6476 -9.7743,-1.8583 -14.5171,-2.9001 -4.7428,-1.0417 -6.945,-1.3622 -10.4815,-0.9906 -3.5365,0.3716 -7.1287,2.3703 -8.8608,3.0178 -1.7322,0.6476 -5.0371,2.0529 -8.0522,2.2062 -3.0151,0.1533 -4.6575,-0.2658 -7.2368,-1.1594 -2.5794,-0.8936 -4.7732,-0.7909 -5.5577,-0.8619l0 -8.1892z"/>
 </g>
</svg>
