<?xml version="1.0" encoding="UTF-8"?>
<!DOCTYPE svg PUBLIC "-//W3C//DTD SVG 1.1//EN" "http://www.w3.org/Graphics/SVG/1.1/DTD/svg11.dtd">
<!-- Creator: CorelDRAW -->
<svg xmlns="http://www.w3.org/2000/svg" xml:space="preserve" width="236px" height="236px" style="shape-rendering:geometricPrecision; text-rendering:geometricPrecision; image-rendering:optimizeQuality; fill-rule:evenodd; clip-rule:evenodd"
viewBox="0 0 236 236"
 xmlns:xlink="http://www.w3.org/1999/xlink">
 <defs>
  <style type="text/css">
   <![CDATA[
    .fil2 {fill:#0093DD}
    .fil3 {fill:#DA251D}
    .fil0 {fill:#0093DD;fill-rule:nonzero}
    .fil1 {fill:#DA251D;fill-rule:nonzero}
    .fil4 {fill:url(#id0);fill-rule:nonzero}
   ]]>
  </style>
  <linearGradient id="id0" gradientUnits="userSpaceOnUse" x1="88.723" y1="117.987" x2="147.328" y2="117.987">
   <stop offset="0" style="stop-color:#DA251D"/>
   <stop offset="1" style="stop-color:#0093DD"/>
  </linearGradient>
 </defs>
 <g id="图层_x0020_1">
  <metadata id="CorelCorpID_0Corel-Layer"/>
  <g id="_138213408">
   <path id="_138215160" class="fil0" d="M120.715 125.619l-0.04248 -18.3561 86.9412 -50.1866c1.30508,-0.92866 2.90162,-1.475 4.6256,-1.475 4.41084,0 7.98624,3.57658 7.98624,7.98624l0 98.248 -0.01888 0c-0.00236,2.74704 -1.42662,5.41856 -3.97424,6.89356 -31.3561,18.1036 -62.684,36.1729 -94.0448,54.2788 -1.23428,0.76582 -2.69158,1.2036 -4.25154,1.1918 -4.39314,-0.03422 -7.92724,-3.62378 -7.89302,-8.01692l0.10148 -56.6789 29.7655 -17.1855 0.02124 52.0817c26.0638,-15.0485 24.4201,-14.1163 50.4887,-29.1672l0 -79.8648 -69.705 40.251z"/>
   <path id="_138214392" class="fil1" d="M120.673 107.263l0.04248 18.3561 -92.9628 53.6829c-3.80668,2.20542 -8.68244,0.90624 -10.8879,-2.90162 -0.72924,-1.25906 -1.07498,-2.63494 -1.0738,-3.99312l-0.0177 -98.2468c0,-3.16004 1.8349,-5.89056 4.49816,-7.1862 31.2523,-18.0434 62.5129,-36.075 93.7663,-54.1183 3.80668,-2.18772 8.66828,-0.87438 10.856,2.9323 0.73042,1.27086 1.06908,2.65854 1.05728,4.02498l-0.1416 56.8099 -29.7726 17.1891 0.0413 -52.2233c-26.0579,15.0438 -24.4413,14.1293 -50.4993,29.1743l0 79.8471 75.094 -43.3473z"/>
   <path id="_138214680" class="fil2" d="M173.44 153.769l-15.4615 8.92552c-1.31688,0.7611 -2.39658,0.30562 -2.39658,-1.01244l0 -27.1542c0,-1.31688 1.07852,-3.01726 2.39658,-3.77836l15.4604 -8.9267c1.31806,-0.7611 2.39658,-0.30326 2.39658,1.01244l0 27.1542c0,1.31688 -1.07852,3.01844 -2.3954,3.77954z"/>
   <path id="_138214176" class="fil3" d="M77.4871 105.53l-15.4604 8.9267c-1.31688,0.75992 -2.39658,0.30562 -2.39658,-1.01244l0 -27.1542c0,-1.31806 1.07852,-3.01844 2.39658,-3.77954l15.4604 -8.9267c1.31806,-0.7611 2.3954,-0.30326 2.3954,1.01244l0.00118 27.1553c0,1.3157 -1.07852,3.01844 -2.39658,3.77836z"/>
   <polygon id="_138214800" class="fil4" points="147.284,91.8878 147.328,110.244 88.723,144.086 88.723,125.692 "/>
  </g>
 </g>
</svg>
