<?xml version="1.0" encoding="UTF-8"?>
<!DOCTYPE svg PUBLIC "-//W3C//DTD SVG 1.1//EN" "http://www.w3.org/Graphics/SVG/1.1/DTD/svg11.dtd">
<!-- Creator: CorelDRAW -->
<svg xmlns="http://www.w3.org/2000/svg" xml:space="preserve" width="886px" height="236px" style="shape-rendering:geometricPrecision; text-rendering:geometricPrecision; image-rendering:optimizeQuality; fill-rule:evenodd; clip-rule:evenodd"
viewBox="0 0 886 236.267"
 xmlns:xlink="http://www.w3.org/1999/xlink">
 <defs>
  <style type="text/css">
   <![CDATA[
    .fil3 {fill:#0093DD}
    .fil0 {fill:#605D5C}
    .fil4 {fill:#DA251D}
    .fil1 {fill:#0093DD;fill-rule:nonzero}
    .fil2 {fill:#DA251D;fill-rule:nonzero}
    .fil5 {fill:url(#id0);fill-rule:nonzero}
   ]]>
  </style>
  <linearGradient id="id0" gradientUnits="userSpaceOnUse" x1="96.6591" y1="118.12" x2="155.33" y2="118.12">
   <stop offset="0" style="stop-color:#DA251D"/>
   <stop offset="1" style="stop-color:#0093DD"/>
  </linearGradient>
 </defs>
 <g id="图层_x0020_1">
  <metadata id="CorelCorpID_0Corel-Layer"/>
  <path class="fil0" d="M268.752 64.9722l31.7436 0 26.58 0 83.4364 0 0 8.86 -85.7731 0 -4.67572 17.72 55.0088 0 26.58 0 0 8.86 0 62.02 0 8.86 -26.58 0 -26.58 0 0 -8.86 26.58 0 0 -62.02 -57.3455 0 -18.6993 70.88 -26.58 0 25.7117 -97.46 -29.4069 0 0 -8.86zm573.067 62.02l16.124 44.3 -26.58 0 -6.645 -18.2563 -6.645 18.2563 -26.5812 0 16.124 -44.3 -20.554 0 0 -8.86 23.7791 0 0.585941 0 0 -26.58 -10.6674 0 -13.6976 0 0 -8.86 10.4725 0 -6.4489 -17.72 26.58 0 6.4489 17.72 1.20614 0 6.4489 -17.72 26.58 0 -6.4489 17.72 10.4725 0 0 8.86 -13.6976 0 -10.6674 0 0 26.58 0.585941 0 23.7791 0 0 8.86 -20.554 0zm-90.1972 0l4.43 0 0 17.72 -4.43 0 0 -17.72zm4.43 -8.86l-4.43 0 0 -17.72 4.43 0 0 17.72zm-4.43 -26.58l4.43 0 0 -17.72 -4.43 0 0 17.72zm-31.01 53.16l4.43 0 0 -70.88 -4.43 0 0 -8.86 4.43 0 26.58 0 4.43 0 26.58 0 4.43 0 0 8.86 -4.43 0 0 70.88 0 8.86 0 17.72 -26.58 0 0 -17.72 -4.43 0 -26.58 0 -4.43 0 0 -8.86zm-82.965 -17.72l-16.124 44.3 -26.58 0 16.124 -44.3 -11.2699 0 -3.22504 8.86 -26.58 0 9.67512 -26.58 -9.67512 0 0 -8.86 0 -8.86 0 -8.86 0 -8.86 0 -8.86 26.58 0 88.6 0 26.58 0 0 8.86 0 8.86 0 8.86 0 8.86 0 8.86 -26.58 0 -78.9249 0 -3.22504 8.86 11.2699 0 26.58 0 8.86 0 26.58 0 35.44 0 0 4.43 0 4.43 0 35.44 0 8.86 -26.58 0 -8.86 0 0 -8.86 8.86 0 0 -35.44 -12.085 0 -16.124 44.3 -26.58 0 16.124 -44.3 -8.86 0zm47.525 -26.58l0 -8.86 -88.6 0 0 8.86 12.899 0 75.701 0zm0 -17.72l0 -8.86 -88.6 0 0 8.86 88.6 0zm-131.851 26.58l7.81098 0 0 62.02 -17.72 0 -8.86 0 -26.58 0 0 -8.86 26.58 0 0 -44.3 -9.37388 0 -7.04075 0 -19.0254 0 -7.55463 0 6.24925 -35.44 26.58 0 -4.68635 26.58 7.04075 0 6.24925 -35.44 -73.0135 0 -7.01239 26.58 1.84761 0 4.43 0 17.72 0 8.86 0 0 70.88 -13.29 0 -13.29 0 -4.43 0 -26.58 0 0 -8.86 0 -35.44 -8.86 0 14.0248 -53.16 -14.0248 0 0 -8.86 16.3615 0 26.58 0 72.2385 0 17.72 0 8.86 0 -7.81098 44.3zm-98.509 53.16l4.43 0 0 -53.16 -4.43 0 0 53.16zm35.44 -26.58l39.87 0 0 8.86 -39.87 0 0 -8.86z"/>
  <g id="_138213408">
   <path id="_138215160" class="fil1" d="M128.687 125.761l-0.042528 -18.3768 87.0395 -50.2433c1.30655,-0.929709 2.9049,-1.47667 4.63083,-1.47667 4.41582,0 7.99526,3.58062 7.99526,7.99526l0 98.359 -0.0189013 0c-0.00236267,2.75014 -1.42823,5.42468 -3.97873,6.90135 -31.3916,18.124 -62.7548,36.2138 -94.1511,54.3402 -1.23567,0.766685 -2.69462,1.20496 -4.25634,1.19315 -4.3981,-0.0342587 -7.9362,-3.62787 -7.90194,-8.02598l0.101595 -56.743 29.7991 -17.2049 0.021264 52.1405c26.0933,-15.0655 24.4477,-14.1323 50.5457,-29.2002l0 -79.955 -69.7837 40.2965z"/>
   <path id="_138214392" class="fil2" d="M128.645 107.384l0.042528 18.3768 -93.0678 53.7436c-3.81098,2.20791 -8.69225,0.907264 -10.9002,-2.9049 -0.730064,-1.26048 -1.07619,-2.63792 -1.07501,-3.99763l-0.01772 -98.3578c0,-3.16361 1.83697,-5.89722 4.50324,-7.19432 31.2876,-18.0638 62.5835,-36.1157 93.8723,-54.1795 3.81098,-2.19019 8.67807,-0.875368 10.8683,2.93561 0.731245,1.2723 1.07029,2.66154 1.05847,4.02953l-0.14176 56.8741 -29.8062 17.2085 0.0413467 -52.2823c-26.0874,15.0608 -24.469,14.1453 -50.5563,29.2073l0 79.9373 75.1789 -43.3963z"/>
   <path id="_138214680" class="fil3" d="M181.472 153.943l-15.479 8.93561c-1.31837,0.76196 -2.39929,0.305965 -2.39929,-1.01358l0 -27.1848c0,-1.31837 1.07974,-3.02067 2.39929,-3.78263l15.4778 -8.93679c1.31955,-0.76196 2.39929,-0.303603 2.39929,1.01358l0 27.1848c0,1.31837 -1.07974,3.02185 -2.39811,3.78381z"/>
   <path id="_138214176" class="fil4" d="M85.4104 105.649l-15.4778 8.93679c-1.31837,0.760779 -2.39929,0.305965 -2.39929,-1.01358l0 -27.1848c0,-1.31955 1.07974,-3.02185 2.39929,-3.78381l15.4778 -8.93679c1.31955,-0.76196 2.39811,-0.303603 2.39811,1.01358l0.00118133 27.186c0,1.31719 -1.07974,3.02185 -2.39929,3.78263z"/>
   <polygon id="_138214800" class="fil5" points="155.286,91.9916 155.33,110.368 96.6591,144.249 96.6591,125.834 "/>
  </g>
 </g>
</svg>
