<?xml version="1.0" standalone="no"?><!DOCTYPE svg PUBLIC "-//W3C//DTD SVG 1.1//EN" "http://www.w3.org/Graphics/SVG/1.1/DTD/svg11.dtd"><svg t="1486990578650" class="icon" style="" viewBox="0 0 1024 1024" version="1.1" xmlns="http://www.w3.org/2000/svg" p-id="45937" xmlns:xlink="http://www.w3.org/1999/xlink" width="200" height="200"><defs><style type="text/css"></style></defs><path d="M510.464 1011.2C235.52 1011.2 12.8 788.48 12.8 513.536S235.52 15.36 510.464 15.36 1008.64 238.592 1008.64 513.536s-223.232 497.664-498.176 497.664z m-4.608-757.76c-77.312 0-139.776 67.584-139.776 150.528 0 83.456 62.464 150.528 139.776 150.528s139.776-67.584 139.776-150.528-62.976-150.528-139.776-150.528z m98.816 332.8l-36.352 155.648h-29.184c-42.496-80.896 9.728-124.928 9.728-124.928h-76.8c47.104 40.448 9.728 124.928 9.728 124.928h-29.184l-35.84-154.624C262.144 629.248 250.88 772.096 250.88 772.096l519.68 1.024c0 0.512-2.048-145.408-165.888-186.88z" fill="#F9742B" p-id="45938"></path></svg>