<?xml version="1.0" standalone="no"?><!DOCTYPE svg PUBLIC "-//W3C//DTD SVG 1.1//EN" "http://www.w3.org/Graphics/SVG/1.1/DTD/svg11.dtd"><svg t="1487037256895" class="icon" style="" viewBox="0 0 1024 1024" version="1.1" xmlns="http://www.w3.org/2000/svg" p-id="31032" xmlns:xlink="http://www.w3.org/1999/xlink" width="200" height="200"><defs><style type="text/css"></style></defs><path d="M238.912 1024A68.288 68.288 0 0 0 307.2 955.712H170.688A68.288 68.288 0 0 0 238.912 1024zM785.088 1024a68.288 68.288 0 0 0 68.224-68.288H716.8A68.288 68.288 0 0 0 785.088 1024zM375.488 204.8V68.288h273.024V204.8H716.8V68.288A68.288 68.288 0 0 0 648.512 0H375.488A68.288 68.288 0 0 0 307.2 68.288V204.8zM920.96 204.8v-25.984a27.328 27.328 0 0 0-27.392-27.264h-81.92a27.328 27.328 0 0 0-27.264 27.264V204.8zM239.616 204.8v-25.984a27.328 27.328 0 0 0-27.328-27.264h-81.92a27.328 27.328 0 0 0-27.264 27.264V204.8z" fill="#61B9DB" p-id="31033"></path><path d="M136.512 238.912H68.288A68.288 68.288 0 0 0 0 307.2v546.112A68.224 68.224 0 0 0 68.288 921.6h68.224zM955.712 238.912h-68.224V921.6h68.224A68.288 68.288 0 0 0 1024 853.312V307.2a68.288 68.288 0 0 0-68.288-68.288z" fill="#F77D2B" p-id="31034"></path><path d="M204.8 238.912V921.6h614.4V238.912z" fill="#FFC549" p-id="31035"></path></svg>