<?xml version="1.0" standalone="no"?><!DOCTYPE svg PUBLIC "-//W3C//DTD SVG 1.1//EN" "http://www.w3.org/Graphics/SVG/1.1/DTD/svg11.dtd"><svg t="1486990279989" class="icon" style="" viewBox="0 0 1024 1024" version="1.1" xmlns="http://www.w3.org/2000/svg" p-id="32858" xmlns:xlink="http://www.w3.org/1999/xlink" width="200" height="200"><defs><style type="text/css"></style></defs><path d="M512 512m-512 0a512 512 0 1 0 1024 0 512 512 0 1 0-1024 0Z" fill="#FFDF75" p-id="32859"></path><path d="M865.088 402.432a49.408 49.408 0 0 0-29.888-39.808 91.52 91.52 0 0 0-49.216-7.04c-19.392 2.304-34.112 11.968-41.792 30.016a80.64 80.64 0 0 0-4.288 47.872 39.808 39.808 0 0 0 16.128 25.792c0.448 0.32 0.768 0.768 1.152 1.216L658.752 565.76l-30.656-189.248c5.568-2.368 10.944-4.224 15.936-6.784 23.36-11.904 37.888-29.568 37.184-56.512-0.64-21.76-10.56-38.336-31.104-47.424a83.392 83.392 0 0 0-61.376-2.944c-18.496 6.016-30.912 17.984-35.52 36.8-3.776 15.488-1.6 30.528 5.376 44.8a41.6 41.6 0 0 0 18.496 19.008c2.112 1.088 4.416 1.984 6.72 3.072L509.696 512.768l-55.04-145.92c12.224-5.824 15.104-7.488 19.136-13.248a62.848 62.848 0 0 0 9.344-56.256 50.048 50.048 0 0 0-37.696-36.288 90.24 90.24 0 0 0-57.024 4.032c-17.088 7.104-27.776 19.712-30.464 38.016-2.368 15.872 1.28 30.784 8.32 44.928 5.44 10.88 13.44 19.648 25.024 24.384 5.632 2.304 11.648 3.52 18.048 5.44l-41.408 187.136-85.44-103.936c3.328-3.84 6.976-6.912 9.408-10.816a56.832 56.832 0 0 0 6.784-45.888c-5.248-19.904-16.256-35.648-36.16-43.968a77.632 77.632 0 0 0-42.432-4.416c-21.824 3.456-37.184 15.104-44.288 36.16-4.544 13.504-5.12 27.392-2.816 41.216 3.584 21.312 15.104 36.864 36.544 44.288 10.88 3.712 22.144 4.8 33.536 3.968 3.904-0.256 5.12 1.024 6.208 4.352 17.024 54.144 34.24 108.16 51.328 162.304 0.96 3.072 2.24 4.032 5.504 4.032h423.168c3.456 0 4.8-1.024 5.76-4.224l52.416-164.8c0.96-2.88 2.176-3.392 5.248-3.264 8 0.32 16.192 0.832 24.064-0.32 18.176-2.624 32.704-11.264 41.024-27.968a81.92 81.92 0 0 0 7.296-49.28zM302.208 768h431.872v-94.144H302.208V768z" fill="#FFFFFF" p-id="32860"></path></svg>