<?xml version="1.0" standalone="no"?><!DOCTYPE svg PUBLIC "-//W3C//DTD SVG 1.1//EN" "http://www.w3.org/Graphics/SVG/1.1/DTD/svg11.dtd"><svg t="1486990069311" class="icon" style="" viewBox="0 0 1024 1024" version="1.1" xmlns="http://www.w3.org/2000/svg" p-id="31659" xmlns:xlink="http://www.w3.org/1999/xlink" width="200" height="200"><defs><style type="text/css"></style></defs><path d="M675.428651 115.836215C598.516958 94.248547 511.999488 60.940954 511.999488 60.940954s-86.517469 33.308617-163.439396 54.895261c-76.836993 21.577434-219.999576 23.515576-219.999576 23.515576v235.34303s19.209504 217.70737 55.774281 284.395212c42.285059 123.532501 210.395848 258.864746 327.664691 303.965943 117.269867-45.101197 285.379633-180.433442 327.664692-303.965943 36.555567-66.688865 55.774281-284.395212 55.774281-284.395212V139.351791s-143.171794-1.937119-220.00981-23.515576z m123.270535 249.160733L480.190015 686.147272c-8.013511 8.022721-20.959358 8.022721-28.983101 0l-6.430456-6.51539-6.965646-7.058767-30.039153-30.303166c-0.178055-0.178055-0.26299-0.440022-0.441045-0.701988L269.616112 501.737262c-8.022721-8.022721-8.022721-21.147646 0-29.160133l43.436278-43.792389a20.320814 20.320814 0 0 1 28.992312 0l123.869168 125.815497 260.441661-262.640746a20.319791 20.319791 0 0 1 28.991288 0l43.436278 43.792389c7.928576 8.089235 7.928576 21.137413-0.083911 29.245068z" fill="#59D282" p-id="31660"></path></svg>