<?xml version="1.0" encoding="UTF-8"?>
<!DOCTYPE svg PUBLIC "-//W3C//DTD SVG 1.1//EN" "http://www.w3.org/Graphics/SVG/1.1/DTD/svg11.dtd">
<!-- Creator: CorelDRAW X8 -->
<svg xmlns="http://www.w3.org/2000/svg" xml:space="preserve" width="256px" height="256px" version="1.1" style="shape-rendering:geometricPrecision; text-rendering:geometricPrecision; image-rendering:optimizeQuality; fill-rule:evenodd; clip-rule:evenodd"
viewBox="0 0 256 256"
 xmlns:xlink="http://www.w3.org/1999/xlink">
 <defs>
  <style type="text/css">
   <![CDATA[
    .fil5 {fill:#2995CC}
    .fil0 {fill:#2D4452}
    .fil6 {fill:#52A3CC}
    .fil4 {fill:#CC584C}
    .fil7 {fill:#CC827A}
    .fil2 {fill:#D9D9D9}
    .fil9 {fill:#E16B5A}
    .fil1 {fill:#E6E6E6}
    .fil3 {fill:whitesmoke}
    .fil8 {fill:#FFD464}
   ]]>
  </style>
 </defs>
 <g id="图层_x0020_1">
  <metadata id="CorelCorpID_0Corel-Layer"/>
  <circle class="fil0" cx="128" cy="128" r="128"/>
  <path class="fil1" d="M26 82c0,0 70,-18 76,-20 6,-2 22,0 22,22 -4,0 -6,0 -8,0 0,-6 -2,-14 -10,-14 -8,2 -34,12 -34,12l-46 0z"/>
  <path class="fil2" d="M100 70c-8,2 -34,12 -34,12l6 0c0,0 22,-8 32,-11 -1,-1 -3,-1 -4,-1z"/>
  <path class="fil2" d="M103 62c7,1 15,6 15,22 1,0 3,0 6,0 0,-21 -14,-24 -21,-22z"/>
  <path class="fil1" d="M230 82c0,0 -70,-18 -76,-20 -6,-2 -22,0 -22,22 4,0 6,0 8,0 0,-6 2,-14 10,-14 8,2 34,12 34,12l46 0z"/>
  <path class="fil2" d="M142 70c-7,0 -10,7 -10,13 0,0 0,1 0,1 4,0 6,0 8,0 0,-5 1,-11 6,-13 -2,0 -3,-1 -4,-1z"/>
  <path class="fil2" d="M154 62c-2,-1 -5,-1 -8,0 0,0 0,0 0,0 6,2 76,20 76,20l8 0c0,0 -70,-18 -76,-20z"/>
  <path class="fil3" d="M28 82c-7,0 -12,5 -12,12l0 50c0,7 5,12 12,12l64 0c6,0 14,-5 17,-11 0,0 7,-17 19,-17 12,0 19,17 19,17 3,6 11,11 17,11l64 0c7,0 12,-5 12,-12l0 -50c0,-7 -5,-12 -12,-12l-200 0z"/>
  <path class="fil1" d="M122 128c-12,0 -19,17 -19,17 -3,6 -11,11 -17,11l6 0c6,0 14,-5 17,-11 0,0 6,-14 16,-17 -1,0 -2,0 -3,0z"/>
  <path class="fil1" d="M228 82l-6 0c7,0 12,5 12,12l0 50c0,7 -5,12 -12,12l6 0c7,0 12,-5 12,-12l0 -50c0,-7 -5,-12 -12,-12z"/>
  <path class="fil4" d="M224 92l-74 0c-4,0 -8,4 -8,8l0 21c10,7 15,18 16,20l0 1 66 0c4,0 8,-4 8,-8l0 -34c0,-4 -4,-8 -8,-8z"/>
  <path class="fil5" d="M98 141c1,-2 6,-13 16,-20l0 -21c0,-4 -4,-8 -8,-8l-74 0c-4,0 -8,4 -8,8l0 34c0,4 4,8 8,8l66 0 0 -1z"/>
  <polygon class="fil6" points="53,92 24,121 24,132 64,92 "/>
  <path class="fil6" d="M81 92l-6 0 -48 48c1,1 3,2 4,2l50 -50z"/>
  <polygon class="fil7" points="207,92 158,141 158,142 163,142 213,92 "/>
  <path class="fil7" d="M185 92l-36 36c2,2 4,4 5,6l42 -42 -11 0 0 0z"/>
  <path class="fil8" d="M200 202c4,0 8,-4 8,-8 0,-4 -4,-8 -8,-8 -1,0 -3,0 -4,1 -1,-1 -3,-1 -4,-1 0,0 0,0 0,0 -1,-3 -4,-6 -8,-6 -3,0 -6,2 -8,5 0,0 -1,0 -2,-1 0,0 0,0 0,0 0,-4 -4,-8 -8,-8 -2,0 -4,1 -5,2 -2,-2 -4,-4 -7,-4 -1,0 -1,0 -2,0 -1,-3 -4,-6 -8,-6 -4,0 -7,3 -8,6 -1,0 -1,0 -2,0 -2,0 -5,1 -6,3 -1,-4 -4,-7 -8,-7 -4,0 -7,3 -8,7 -1,-1 -3,-1 -4,-1 -1,0 -3,0 -4,1 -1,-2 -3,-3 -6,-3 -3,0 -6,2 -8,5 -1,-2 -3,-3 -6,-3 -1,0 -3,0 -4,1 -1,-2 -3,-3 -6,-3 -4,0 -7,3 -8,6 -1,0 -1,0 -2,0 -4,0 -7,3 -8,6 0,0 0,0 0,0 -4,0 -8,4 -8,8 0,4 4,8 8,8l144 0z"/>
  <path class="fil1" d="M48 228c22,17 50,28 80,28 30,0 58,-11 80,-28l0 -32 -160 0 0 32z"/>
  <path class="fil3" d="M214 200c0,2 -2,4 -4,4l-164 0c-2,0 -4,-2 -4,-4l0 0c0,-2 2,-4 4,-4l164 0c2,0 4,2 4,4l0 0z"/>
  <path class="fil9" d="M98 204l-4 0 0 47c1,1 3,1 4,1l0 -48z"/>
  <path class="fil9" d="M82 204l-4 0 0 42c1,0 3,1 4,1l0 -43z"/>
  <path class="fil9" d="M90 204l-4 0 0 45c1,0 3,1 4,1l0 -46z"/>
  <path class="fil9" d="M106 204l-4 0 0 49c1,1 3,1 4,1l0 -50z"/>
  <path class="fil9" d="M66 204l-4 0 0 34c1,0 3,1 4,2l0 -36z"/>
  <path class="fil9" d="M198 235c1,-1 3,-2 4,-3l0 -28 -4 0 0 31z"/>
  <path class="fil9" d="M58 235l0 -31 -4 0 0 28c1,1 3,2 4,3z"/>
  <path class="fil9" d="M114 204l-4 0 0 51c1,0 3,0 4,0l0 -51z"/>
  <path class="fil9" d="M74 204l-4 0 0 38c1,1 3,1 4,2l0 -40z"/>
  <path class="fil9" d="M142 255c1,0 3,0 4,0l0 -51 -4 0 0 51z"/>
  <path class="fil9" d="M174 247c1,0 3,-1 4,-1l0 -42 -4 0 0 43z"/>
  <path class="fil9" d="M122 204l-4 0 0 52c1,0 3,0 4,0l0 -52z"/>
  <path class="fil9" d="M166 250c1,0 3,-1 4,-1l0 -45 -4 0 0 46z"/>
  <path class="fil9" d="M182 244c1,-1 3,-1 4,-2l0 -38 -4 0 0 40z"/>
  <path class="fil9" d="M158 252c1,0 3,0 4,-1l0 -47 -4 0 0 48z"/>
  <path class="fil9" d="M134 256c1,0 3,0 4,0l0 -52 -4 0 0 52z"/>
  <path class="fil9" d="M130 256l0 -52 -4 0 0 52c1,0 1,0 2,0 1,0 1,0 2,0z"/>
  <path class="fil9" d="M190 240c1,-1 3,-2 4,-2l0 -34 -4 0 0 36z"/>
  <path class="fil9" d="M150 254c1,0 3,0 4,-1l0 -49 -4 0 0 50z"/>
 </g>
</svg>
