<?xml version="1.0" standalone="no"?><!DOCTYPE svg PUBLIC "-//W3C//DTD SVG 1.1//EN" "http://www.w3.org/Graphics/SVG/1.1/DTD/svg11.dtd"><svg t="1497509612037" class="icon" style="" viewBox="0 0 1024 1024" version="1.1" xmlns="http://www.w3.org/2000/svg" p-id="13143" xmlns:xlink="http://www.w3.org/1999/xlink" width="200" height="200"><defs><style type="text/css"></style></defs><path d="M328.590044 275.25481a5.771395 5.771395 0 0 1-8.032517-1.444977 5.773828 5.773828 0 0 1 1.446193-8.03495l45.424348-31.55962a5.772612 5.772612 0 0 1 6.586323 9.478711l-45.424347 31.560836z m-29.418912 20.440105a5.770179 5.770179 0 1 0-6.586324-9.478711L247.16046 317.775823a5.771395 5.771395 0 0 0 6.586324 9.479928l45.424348-31.560836z" fill="#00BBF7" p-id="13144"></path><path d="M328.59126 275.25481a5.772612 5.772612 0 0 1-8.032517-1.444977 5.773828 5.773828 0 0 1 1.446194-8.03495l45.423131-31.55962a5.772612 5.772612 0 0 1 8.032517 1.444978 5.772612 5.772612 0 0 1-1.446194 8.033733l-45.423131 31.560836z m-29.420128 20.440105a5.770179 5.770179 0 1 0-6.585108-9.478711l-45.424347 31.559619a5.770179 5.770179 0 1 0 6.586323 9.479928l45.423132-31.560836z" fill="#00BBF7" p-id="13145"></path><path d="M328.59126 275.25481a5.772612 5.772612 0 0 1-8.032517-1.444977 5.773828 5.773828 0 0 1 1.446194-8.03495l45.424347-31.55962a5.771395 5.771395 0 0 1 6.586324 9.478711l-45.424348 31.560836z m-29.418912 20.438889a5.773828 5.773828 0 0 0-6.58754-9.479928L247.16046 317.774607a5.771395 5.771395 0 0 0-1.446193 8.033734 5.770179 5.770179 0 0 0 8.032517 1.446193l45.425564-31.560835z" fill="#00BBF7" p-id="13146"></path><path d="M328.59126 275.25481a5.772612 5.772612 0 0 1-6.58754-9.479927l45.424348-31.55962a5.773828 5.773828 0 0 1 8.033733 1.444978 5.772612 5.772612 0 0 1-1.44741 8.033733l-45.423131 31.560836z m-29.418912 20.438889a5.771395 5.771395 0 0 0-6.586324-9.479928l-45.424347 31.560836a5.771395 5.771395 0 1 0 6.586323 9.479927l45.424348-31.560835zM383.918811 284.93178a5.772612 5.772612 0 0 1-1.562959 11.436971l-54.802105-7.490042a5.771395 5.771395 0 0 1 1.562959-11.436972l54.802105 7.490043zM238.820216 265.102263a5.771395 5.771395 0 1 0-1.562959 11.436971l54.802105 7.490043a5.772612 5.772612 0 1 0 1.562959-11.438188l-54.802105-7.488826zM358.833615 336.117792a5.771395 5.771395 0 1 1-9.273155 6.875806l-32.941348-44.433054a5.771395 5.771395 0 0 1 1.200499-8.073872 5.773828 5.773828 0 0 1 8.073872 1.198066l32.940132 44.433054z m-87.216791-117.641592a5.771395 5.771395 0 1 0-9.273154 6.875806l32.941348 44.433054a5.773828 5.773828 0 0 0 8.073872 1.199282 5.773828 5.773828 0 0 0 1.199283-8.073872l-32.941349-44.43427z" fill="#00BBF7" p-id="13147"></path><path d="M328.59126 275.253594a5.770179 5.770179 0 0 1-8.032517-1.446194 5.770179 5.770179 0 0 1 1.446194-8.032517l45.424347-31.560836a5.770179 5.770179 0 1 1 6.586324 9.478711l-45.424348 31.560836z m-29.418912 20.438888a5.771395 5.771395 0 1 0-6.58754-9.478711L247.16046 317.774607a5.772612 5.772612 0 0 0 6.586324 9.478711l45.425564-31.560836zM320.265612 265.276195a5.772612 5.772612 0 0 1-11.253309-2.57493l12.340691-53.919063a5.772612 5.772612 0 0 1 11.252092 2.576146l-12.339474 53.917847z m-7.993595 34.920287a5.771395 5.771395 0 1 0-11.252093-2.576147l-12.34069 53.917847a5.771395 5.771395 0 0 0 11.252092 2.57493l12.340691-53.91663z" fill="#00BBF7" p-id="13148"></path><path d="M67.387274 371.565958h882.99794v592.922381H67.387274z" fill="#FA9AB4" p-id="13149"></path><path d="M993.110568 327.393194H142.059034c-70.910927 0-128.320802 53.031156-128.320802 118.347052v446.871416c0 65.317113 57.409875 118.226638 128.320802 118.226638h853.000064s-10.462707-24.447849-10.704752-37.82727c-0.36611-13.987576 25.908639-41.720681 25.908638-41.720681v-41.720681S984.354346 861.838996 984.354346 847.85142s25.908639-41.720681 25.908638-41.720681V764.414924S984.354346 736.681818 984.354346 722.694243s25.908639-41.720681 25.908638-41.720681V639.25653S984.354346 611.523425 984.354346 597.535849s25.908639-41.718248 25.908638-41.718248v-41.720681S984.354346 486.365031 984.354346 472.377455s25.908639-41.719465 25.908638-41.719464v-41.597833S984.354346 361.328269 984.354346 347.340693c-0.121631-13.987576 8.756222-19.947499 8.756222-19.947499M939.837366 381.155353v49.625485s-25.908639 27.731889-25.908639 41.719465 25.908639 41.718248 25.908639 41.718248v41.720681s-25.908639 27.730673-25.908639 41.718248S939.837366 639.378161 939.837366 639.378161v41.720681s-25.908639 27.730673-25.908639 41.718248 25.908639 41.719465 25.908639 41.719465v41.718248s-25.908639 27.733105-25.908639 41.720681 25.908639 41.719465 25.908639 41.719464v43.421084l-8.514177 23.718063H134.517906c-27.85352 0-62.275119-37.463593-62.275119-79.789997v-446.386107c1.459573-17.636508 24.204587-49.260592 46.82797-49.260592l820.766609-0.242046m0 0z" fill="#E53A66" p-id="13150"></path><path d="M519.23705 753.589756v-0.244478h-101.075437v-61.423702h101.075437v-0.363677c12.163109 0 21.893597-9.852118 21.893597-21.893596 0-12.163109-9.852118-21.893597-21.893597-21.893597h-86.114813l94.386944-173.932461c3.404454-4.743613 5.59503-10.460274 5.59503-16.66346 0-15.690411-12.649634-28.340044-28.340045-28.340044-12.28474 0-22.501752 7.78439-26.515578 18.609557h-0.243262s-81.614463 159.459578-85.385026 170.282312h-1.09468c-5.230137-13.37942-89.277221-170.282312-89.277222-170.282312H302.00392c-3.892195-10.825167-14.109207-18.609557-26.272316-18.609557-15.447149 0-27.975151 12.528002-27.975151 27.975151 0 5.838292 1.702835 11.19006 4.743612 15.56878l-0.121631 0.121631 94.020834 175.270403H258.58162c-12.163109 0-21.893597 9.852118-21.893597 21.893597 0 12.163109 9.852118 21.893597 21.893597 21.893596v0.363677H362.819466v61.423702H258.58162v0.244478c-12.163109 0-21.893597 9.852118-21.893597 21.893597 0 12.163109 9.852118 21.893597 21.893597 21.893596v0.363677H362.819466v88.427021h0.608155c-0.364893 1.824466-0.608155 3.648933-0.608155 5.59503 0 15.203886 12.28474 27.488627 27.488627 27.488627s27.488627-12.28474 27.488626-27.488627c0-1.946097-0.243262-3.770564-0.608155-5.59503h0.729786v-88.427021h101.075438v-0.363677c12.163109 0 21.893597-9.852118 21.893596-21.893596 0.243262-12.042694-9.608856-21.893597-21.650334-21.893597m0 0z" fill="#E53A66" p-id="13151"></path><path d="M697.4266 444.037411c0-13.622682 13.501051-24.812743 30.165727-24.812743 16.662243 0 30.163294 11.068429 30.163294 24.812743v36.975852c0 13.622682-13.501051 24.812743-30.163294 24.812743-16.664676 0-30.165727-11.068429-30.165727-24.812743v-36.975852m0 0zM697.4266 580.629127c0-13.621466 13.501051-24.81031 30.165727-24.81031 16.662243 0 30.163294 11.068429 30.163294 24.81031v36.975852c0 13.623899-13.501051 24.812743-30.163294 24.812743-16.664676 0-30.165727-11.068429-30.165727-24.812743v-36.975852m0 0zM697.4266 717.100429c0-13.623899 13.501051-24.812743 30.165727-24.812743 16.662243 0 30.163294 11.068429 30.163294 24.812743v36.975852c0 13.621466-13.501051 24.81031-30.163294 24.81031-16.664676 0-30.165727-11.068429-30.165727-24.81031v-36.975852m0 0zM697.4266 853.690929c0-13.621466 13.501051-24.81031 30.165727-24.81031 16.662243 0 30.163294 11.068429 30.163294 24.81031v36.975852c0 13.623899-13.501051 24.812743-30.163294 24.812742-16.664676 0-30.165727-11.068429-30.165727-24.812742v-36.975852m0 0z" fill="#F86F93" p-id="13152"></path><path d="M220.875981 289.323878l25.177636-66.288945c7.662759-15.933673 37.340745-30.164511 58.504556-22.136858l233.043956 88.425803h173.932461L341.534025 148.839967c-66.288945-25.177636-138.781076 3.892195-162.012615 64.951003L150.816472 289.323878h70.059509m0 0zM425.824371 138.0148l45.61166-53.274418c12.528002-12.406371 45.246766-15.690411 62.517165-0.973049l197.042369 168.702325 98.521184 36.975852h39.530105L586.378629 47.278005C532.494839 1.179822 454.529309 3.977337 411.958427 53.601606l-51.328321 59.964128 65.194265 24.449066m0 0z" fill="#E53A66" p-id="13153"></path><path d="M944.785319 295.883443l-33.289214-18.637532 18.638749-33.291646a10.946798 10.946798 0 0 0-4.203571-14.898593 10.946798 10.946798 0 0 0-14.899809 4.202355l-18.638748 33.290429-33.289214-18.638748c-5.273924-2.953203-11.944173-1.070354-14.897376 4.20357a10.945582 10.945582 0 0 0 4.202354 14.898593L881.697704 285.650619l-18.637532 33.29043a10.946798 10.946798 0 0 0 4.20357 14.898593 10.944366 10.944366 0 0 0 14.898593-4.203571l18.637532-33.29043 33.29043 18.638749a10.945582 10.945582 0 0 0 14.898592-4.204787 10.944366 10.944366 0 0 0-4.20357-14.89616z" fill="#FCDD02" p-id="13154"></path><path d="M550.334471 162.681585m-22.906783 0a22.906784 22.906784 0 1 0 45.813567 0 22.906784 22.906784 0 1 0-45.813567 0Z" fill="#FCA000" p-id="13155"></path></svg>