<?xml version="1.0" encoding="UTF-8"?>
<!DOCTYPE svg PUBLIC "-//W3C//DTD SVG 1.1//EN" "http://www.w3.org/Graphics/SVG/1.1/DTD/svg11.dtd">
<!-- Creator: CorelDRAW X8 -->
<svg xmlns="http://www.w3.org/2000/svg" xml:space="preserve" width="256px" height="256px" version="1.1" style="shape-rendering:geometricPrecision; text-rendering:geometricPrecision; image-rendering:optimizeQuality; fill-rule:evenodd; clip-rule:evenodd"
viewBox="0 0 256 256"
 xmlns:xlink="http://www.w3.org/1999/xlink">
 <defs>
  <style type="text/css">
   <![CDATA[
    .fil2 {fill:#2B3B4E}
    .fil1 {fill:#324A5E}
    .fil0 {fill:#FD8469}
    .fil3 {fill:white}
   ]]>
  </style>
 </defs>
 <g id="图层_x0020_1">
  <metadata id="CorelCorpID_0Corel-Layer"/>
  <g id="_808269920">
   <circle class="fil0" cx="128" cy="128" r="128"/>
   <circle class="fil1" cx="128" cy="100" r="17"/>
   <path class="fil2" d="M169 228c0,-1 0,-2 0,-3 0,0 -1,0 -1,0 -1,-1 -1,-3 -2,-4 -2,-2 -4,-5 -5,-7 0,0 0,-1 0,-1l-28 -24 16 -14c0,0 0,-1 -1,-1 0,0 0,0 0,-1 0,0 0,0 0,0 -1,-1 -2,-2 -3,-3l-17 15 -18 -15c-1,1 -1,3 -2,5 0,0 0,0 0,0l15 14 -32 28c0,0 0,0 0,0 -2,4 -3,7 -5,11 0,0 1,0 1,0 0,0 1,0 2,-1l39 -34 39 34c1,0 2,1 2,1 0,0 0,0 0,0z"/>
   <path class="fil1" d="M119 127l-45 117c2,1 5,2 7,3l47 -105c0,0 31,67 48,105 2,-1 3,-2 5,-3 -13,-35 -36,-97 -44,-117l-18 0 0 0z"/>
   <g>
    <path class="fil3" d="M106 71c-2,-1 -5,-1 -6,0 -8,8 -12,18 -12,29 0,10 4,20 12,28 1,1 2,1 3,1 1,0 2,0 3,-1 1,-2 1,-4 0,-6 -13,-12 -13,-32 0,-45 1,-1 1,-4 0,-6z"/>
    <path class="fil3" d="M156 71c-1,-1 -4,-1 -6,0 -1,2 -1,5 0,6 13,13 13,33 0,45 -1,2 -1,4 0,6 1,1 2,1 3,1 1,0 2,0 3,-1 8,-8 12,-18 12,-28 0,-11 -4,-21 -12,-29z"/>
    <path class="fil3" d="M92 64c2,-2 2,-4 0,-6 -1,-1 -4,-1 -6,0 -22,23 -22,60 0,83 1,1 2,1 3,1 1,0 3,0 3,-1 2,-1 2,-4 0,-6 -19,-19 -19,-51 0,-71z"/>
    <path class="fil3" d="M169 58c-1,-1 -4,-1 -5,0 -2,2 -2,4 0,6 9,10 14,22 14,36 0,13 -5,26 -14,35 -2,2 -2,5 0,6 0,1 1,1 2,1 2,0 3,0 3,-1 12,-11 18,-26 18,-41 0,-16 -6,-31 -18,-42z"/>
    <path class="fil3" d="M79 51c2,-2 2,-4 0,-6 -1,-2 -4,-2 -6,0 -30,30 -30,79 0,109 1,1 2,2 3,2 1,0 2,-1 3,-2 2,-1 2,-4 0,-6 -27,-26 -27,-70 0,-97z"/>
    <path class="fil3" d="M183 45c-2,-2 -5,-2 -6,0 -2,2 -2,4 0,6 13,13 20,30 20,49 0,18 -7,35 -20,48 -2,2 -2,5 0,6 1,1 2,2 3,2 1,0 2,-1 3,-2 14,-14 22,-34 22,-54 0,-21 -8,-40 -22,-55z"/>
   </g>
   <g>
   </g>
   <g>
   </g>
   <g>
   </g>
   <g>
   </g>
   <g>
   </g>
   <g>
   </g>
   <g>
   </g>
   <g>
   </g>
   <g>
   </g>
   <g>
   </g>
   <g>
   </g>
   <g>
   </g>
   <g>
   </g>
   <g>
   </g>
   <g>
   </g>
  </g>
 </g>
</svg>
