<?xml version="1.0" encoding="UTF-8"?>
<!DOCTYPE svg PUBLIC "-//W3C//DTD SVG 1.1//EN" "http://www.w3.org/Graphics/SVG/1.1/DTD/svg11.dtd">
<!-- Creator: CorelDRAW X8 -->
<svg xmlns="http://www.w3.org/2000/svg" xml:space="preserve" width="256px" height="256px" version="1.1" style="shape-rendering:geometricPrecision; text-rendering:geometricPrecision; image-rendering:optimizeQuality; fill-rule:evenodd; clip-rule:evenodd"
viewBox="0 0 256 256"
 xmlns:xlink="http://www.w3.org/1999/xlink">
 <defs>
  <style type="text/css">
   <![CDATA[
    .fil4 {fill:#00CAD1}
    .fil1 {fill:#00D7DF}
    .fil2 {fill:#33363A}
    .fil3 {fill:#FFF1D9}
    .fil0 {fill:white}
    .fil5 {fill:#33363A;fill-rule:nonzero}
   ]]>
  </style>
 </defs>
 <g id="图层_x0020_1">
  <metadata id="CorelCorpID_0Corel-Layer"/>
  <rect class="fil0" x="59" y="40" width="138" height="176"/>
  <path class="fil1" d="M59 226c0,14 12,26 26,26l86 0c14,0 26,-12 26,-26l0 -11 -138 0 0 11z"/>
  <path class="fil1" d="M171 4l-86 0c-14,0 -26,12 -26,26l0 11 138 0 0 -11c0,-14 -12,-26 -26,-26z"/>
  <path class="fil0" d="M137 241l-18 0c-4,0 -7,-3 -7,-7l0 0c0,-4 3,-7 7,-7l18 0c4,0 7,3 7,7l0 0c0,4 -3,7 -7,7z"/>
  <rect class="fil2" transform="matrix(-0.906296 0.422598 -0.422598 -0.906296 82.0477 154.423)" width="7.83664" height="7.72916"/>
  <rect class="fil2" transform="matrix(-0.422598 -0.906296 0.906296 -0.422598 91.539 193.348)" width="30.0143" height="7.83546"/>
  <rect class="fil2" transform="matrix(-0.422598 -0.906296 0.906296 -0.422598 112.455 198.579)" width="47.0198" height="7.83546"/>
  <rect class="fil2" transform="matrix(0.422598 0.906296 -0.906296 0.422598 143.541 147.419)" width="7.72916" height="7.83664"/>
  <rect class="fil2" transform="matrix(-0.422598 -0.906296 0.906296 -0.422598 156.31 193.353)" width="30.0143" height="7.83546"/>
  <rect class="fil2" transform="matrix(-0.422598 -0.906296 0.906296 -0.422598 177.228 198.579)" width="47.0198" height="7.83546"/>
  <path class="fil2" d="M171 0l-86 0c-16,0 -30,13 -30,30l0 196c0,17 14,30 30,30l86 0c16,0 30,-13 30,-30l0 -142 -8 0 0 128 -107 0 0 7 107 0 0 7c0,12 -10,22 -22,22l-86 0c-12,0 -22,-10 -22,-22l0 -182 130 0 0 13 8 0 0 -27c0,-17 -14,-30 -30,-30zm-108 37l0 -7c0,-12 10,-22 22,-22l86 0c12,0 22,10 22,22l0 7 -130 0z"/>
  <path class="fil2" d="M137 244c6,0 11,-4 11,-10 0,-6 -5,-11 -11,-11l-18 0c-6,0 -11,5 -11,11 0,6 5,10 11,10l18 0zm-21 -10c0,-2 2,-3 3,-3l18 0c1,0 3,1 3,3 0,1 -2,3 -3,3l-18 0c-1,0 -3,-2 -3,-3z"/>
  <rect class="fil2" x="193" y="66" width="7.8366" height="7.8366"/>
  <rect class="fil2" x="69" y="212" width="7.8366" height="7.8366"/>
  <rect class="fil0" x="104" y="18" width="7.72912" height="7.8366"/>
  <rect class="fil0" x="121" y="18" width="30.0141" height="7.8366"/>
  <path class="fil3" d="M87 119c0,-6 5,-10 10,-10 4,0 6,1 9,3 -1,-5 -6,-8 -11,-8 -6,0 -10,4 -10,10 0,3 0,5 2,7 0,-1 0,-2 0,-2z"/>
  <path class="fil3" d="M92 87c0,-3 2,-6 5,-6 3,0 4,1 5,2 -1,-2 -3,-5 -5,-5 -4,0 -7,3 -7,7 0,1 1,3 2,4 0,-1 0,-1 0,-2z"/>
  <circle class="fil1" cx="128" cy="108" r="44"/>
  <path class="fil4" d="M128 64l0 88c24,0 44,-19 44,-44 0,-24 -20,-44 -44,-44z"/>
  <circle class="fil1" cx="128" cy="108" r="35"/>
  <path class="fil4" d="M104 84l48 48c14,-13 14,-34 0,-48 -14,-14 -34,-14 -48,0z"/>
  <path class="fil2" d="M128 61c-26,0 -47,21 -47,47 0,26 21,47 47,47 26,0 47,-21 47,-47 0,-26 -21,-47 -47,-47zm0 14c18,0 33,15 33,33 0,18 -15,33 -33,33 -18,0 -33,-15 -33,-33 0,-18 15,-33 33,-33zm41 42c-1,0 -1,-1 -2,-1l-2 0c0,-1 -1,-1 -1,0 0,-2 0,-4 0,-6 1,0 2,0 2,0l2 0c1,0 1,0 2,0 0,3 -1,4 -1,7zm-5 9l-2 -1c0,0 -1,0 -1,0 1,-2 2,-3 2,-6 0,1 0,1 1,1l3 1c0,0 0,0 0,0 0,0 0,0 1,0 -1,2 -1,4 -3,6 0,-1 0,-1 -1,-1l0 0zm-73 1c-2,-2 -2,-4 -3,-6 1,0 1,0 1,0 0,0 0,0 0,0l3 -1c1,0 1,0 1,-1 0,3 1,4 2,6 0,0 -1,0 -1,0l-2 1c-1,0 -1,0 -1,1l0 0zm-5 -17c1,0 1,0 2,0l2 0c0,0 1,0 2,0 0,2 0,4 0,6 0,-1 -1,-1 -1,0l-2 0c-1,0 -1,1 -2,1 0,-3 -1,-4 -1,-7zm1 -11c1,1 1,1 2,1l2 1c0,0 0,0 0,0 1,0 1,0 1,0 0,1 0,3 0,5 -1,0 -2,0 -2,0l-2 0c-1,0 -1,0 -2,0 0,-2 1,-4 1,-7zm5 -9l2 1c0,0 1,1 1,1 0,0 0,0 0,0 -1,2 -2,3 -2,5 0,0 0,-1 -1,-1l-3 -1c0,0 0,0 -1,0 1,-1 1,-4 3,-6 0,1 0,1 1,1l0 0zm61 -10c0,0 0,1 -1,1 -1,-1 -2,-3 -4,-4 0,0 1,0 1,0l1 -3c0,0 0,-1 0,-1 3,1 5,3 6,4 -1,0 -1,0 -1,1l-2 2zm-7 -8l-1 2c0,0 0,1 0,2 -2,-1 -4,-2 -6,-3 1,0 1,0 1,-1l1 -3c0,0 0,0 0,0 2,0 4,1 6,2 -1,0 -1,1 -1,1zm-10 -3l-1 2c0,0 0,1 0,2 -1,-1 -3,-1 -5,-1 0,-1 0,-1 0,-2l0 -2c0,-1 0,-1 0,-2 2,0 4,1 7,1 0,1 -1,1 -1,2zm-10 3c-2,0 -4,0 -5,1 0,-1 0,-2 0,-2l-1 -2c0,-1 -1,-1 -1,-2 3,0 5,-1 7,-1 0,1 0,1 0,2l0 2c0,1 0,1 0,2zm-11 -3l1 3c0,1 0,1 1,1 -2,1 -4,2 -6,3 0,-1 0,-2 0,-2l-1 -2c0,0 0,-1 -1,-1 2,-1 4,-2 6,-2 0,0 0,0 0,0zm-9 5l1 3c0,0 1,0 1,0 -2,1 -3,3 -4,4 -1,0 -1,-1 -1,-1l-2 -2c0,-1 0,-1 -1,-1 1,-1 3,-3 6,-4 0,0 0,1 0,1zm-3 63c0,-1 0,-1 1,-2 1,2 2,3 4,4 0,0 -1,0 -1,1l-1 2c0,1 0,1 0,1 -3,-1 -5,-2 -6,-4 1,0 1,0 1,0l2 -2zm7 7l1 -1c0,-1 0,-2 0,-2 2,1 4,2 6,2 -1,0 -1,0 -1,1l-1 3c0,0 0,0 0,1 -2,-1 -4,-1 -6,-3 1,0 1,0 1,-1l0 0zm10 4l1 -2c0,-1 0,-2 0,-2 1,0 3,0 5,1 0,0 0,1 0,1l0 3c0,0 0,1 0,1 -2,0 -4,0 -7,-1 0,0 1,-1 1,-1l0 0zm10 -3c2,-1 4,-1 5,-1 0,0 0,1 0,2l1 2c0,0 1,1 1,1 -3,1 -5,1 -7,1 0,0 0,-1 0,-1l0 -3c0,0 0,-1 0,-1l0 0zm11 2l-1 -3c0,-1 0,-1 -1,-1 2,0 4,-1 6,-2 0,0 0,1 0,2l1 1c0,1 0,1 1,1 -2,2 -4,2 -6,3 0,-1 0,-1 0,-1l0 0zm9 -5l-1 -2c0,-1 -1,-1 -1,-1 2,-1 3,-2 4,-4 1,1 1,1 1,2l2 2c0,0 0,0 1,0 -1,2 -3,3 -6,4 0,0 0,0 0,-1zm15 -53c2,2 2,5 3,6 -1,0 -1,0 -1,0l-3 1c-1,0 -1,1 -1,1 0,-2 -1,-3 -2,-5 0,0 0,0 0,0 0,0 1,-1 1,-1l2 -1c1,0 1,0 1,-1l0 0zm3 17l-2 0c0,0 -1,0 -2,0 0,-2 0,-4 0,-5 0,0 0,0 1,0 0,0 0,0 0,0l2 -1c1,0 1,0 2,-1 0,3 1,5 1,7 -1,0 -1,0 -2,0zm-5 -20c0,0 0,0 -1,0l-3 1c0,0 0,1 0,1 -1,-2 -3,-2 -4,-4 0,0 1,-1 1,-1l3 -2c0,0 0,0 0,-1 1,1 3,4 4,6zm-66 -6c0,1 0,1 0,1l3 2c0,0 1,1 1,1 -1,2 -3,2 -4,4 0,0 0,-1 0,-1l-3 -1c-1,0 -1,0 -1,0 1,-2 3,-5 4,-6zm-4 50c0,0 0,0 0,0 0,0 0,0 1,0l3 -1c0,0 0,0 0,-1 1,2 2,2 3,3 0,1 0,1 0,1 1,0 1,0 1,1 0,0 -1,0 -1,0l-3 2c0,0 0,1 0,1 -1,-1 -3,-3 -4,-6l0 0zm66 6c0,0 0,-1 0,-1l-3 -2c0,0 -1,0 -1,0 1,-2 3,-3 4,-5 0,1 0,1 0,1l3 1c1,0 1,0 1,0 0,0 0,0 0,0 -1,3 -3,5 -4,6z"/>
  <path class="fil5" d="M134 81c1,0 1,1 3,1 2,0 4,1 4,1 0,2 0,3 -1,3 -1,4 -5,8 -11,11 1,-3 3,-7 5,-13 0,-1 0,-2 0,-3l0 0zm-14 0c2,6 4,11 6,16 -7,-3 -10,-7 -12,-11 0,-1 0,-2 0,-2 0,-1 1,-2 4,-2 1,0 2,-1 2,-1l0 0zm22 16l-3 7c-9,-2 -18,-2 -28,1 7,-5 15,-8 27,-8 0,0 2,0 4,0l0 0zm-1 13l1 0 0 8c-9,-2 -19,-2 -31,1 7,-6 17,-9 30,-9zm-18 -10l9 -1c-2,9 -2,20 -3,36 -4,-11 -7,-22 -6,-35z"/>
 </g>
</svg>
