<?xml version="1.0" encoding="UTF-8"?>
<!DOCTYPE svg PUBLIC "-//W3C//DTD SVG 1.1//EN" "http://www.w3.org/Graphics/SVG/1.1/DTD/svg11.dtd">
<!-- Creator: CorelDRAW X8 -->
<svg xmlns="http://www.w3.org/2000/svg" xml:space="preserve" width="256px" height="256px" version="1.1" style="shape-rendering:geometricPrecision; text-rendering:geometricPrecision; image-rendering:optimizeQuality; fill-rule:evenodd; clip-rule:evenodd"
viewBox="0 0 256 256"
 xmlns:xlink="http://www.w3.org/1999/xlink">
 <defs>
  <style type="text/css">
   <![CDATA[
    .fil2 {fill:#33363A}
    .fil7 {fill:#6EC2ED}
    .fil8 {fill:#7EC9F0}
    .fil6 {fill:#A0D9F6}
    .fil0 {fill:#E8E8ED}
    .fil4 {fill:#FF900B}
    .fil3 {fill:#FFBE08}
    .fil5 {fill:#FFF1D9}
    .fil1 {fill:white}
    .fil9 {fill:#33363A;fill-rule:nonzero}
   ]]>
  </style>
 </defs>
 <g id="图层_x0020_1">
  <metadata id="CorelCorpID_0Corel-Layer"/>
  <path class="fil0" d="M128 86c-9,0 -17,-5 -21,-12 0,0 0,0 0,0l-24 -24c-10,-10 -10,-25 0,-35 8,-7 19,-9 28,-5 4,-4 10,-7 17,-7 7,0 13,3 17,7 9,-4 20,-2 28,5 10,10 10,25 0,35l-24 24c0,0 0,0 0,0 -4,7 -12,12 -21,12z"/>
  <path class="fil1" d="M107 74l4 1 -28 -25c-10,-10 -10,-25 0,-35 4,-4 9,-6 14,-7 5,1 10,3 14,7 10,10 5,49 -4,59z"/>
  <path class="fil2" d="M128 89c-10,0 -19,-5 -24,-13l-23 -24c-5,-5 -8,-12 -8,-19 0,-8 3,-15 8,-20 8,-8 19,-10 29,-6 5,-5 11,-7 18,-7 7,0 13,2 18,7 10,-4 21,-2 29,6 11,11 11,28 0,39l-23 24c-5,8 -14,13 -24,13zm-19 -17c4,7 11,11 19,11 8,0 15,-4 19,-11 0,0 0,0 0,0l24 -24c8,-9 8,-22 0,-31 -7,-6 -16,-8 -24,-4 -2,0 -3,0 -4,-1 -4,-4 -9,-6 -15,-6 -6,0 -11,2 -15,6 -1,1 -2,1 -4,1 -8,-4 -17,-2 -24,4 -4,4 -6,10 -6,16 0,5 2,11 6,15l24 24c0,0 0,0 0,0l0 0z"/>
  <path class="fil1" d="M226 195c0,50 -44,58 -98,58 -54,0 -98,-8 -98,-58 0,-50 44,-110 98,-110 54,0 98,60 98,110z"/>
  <path class="fil0" d="M140 86c-48,8 -86,63 -86,109 0,46 38,57 86,58 48,-1 86,-12 86,-58 0,-46 -38,-101 -86,-109z"/>
  <path class="fil2" d="M128 256c-52,0 -101,-7 -101,-61 0,-51 45,-113 101,-113 56,0 101,62 101,113 0,54 -49,61 -101,61zm0 -168c-53,0 -95,59 -95,107 0,46 38,55 95,55 57,0 95,-9 95,-55 0,-48 -42,-107 -95,-107z"/>
  <path class="fil3" d="M169 87c0,6 -5,11 -11,11l-60 0c-6,0 -11,-5 -11,-11l0 0c0,-7 5,-12 11,-12l60 0c6,0 11,5 11,12l0 0z"/>
  <g>
   <path class="fil4" d="M169 87l0 0c0,6 -5,11 -11,11l-60 0c-6,0 -11,-5 -11,-11l0 0 82 0zm0 0l0 0 0 0z"/>
  </g>
  <path class="fil2" d="M158 72l-26 0 9 -8c1,-1 1,-3 0,-4 -2,-1 -4,-1 -5,0l-8 8 -8 -8c-1,-1 -3,-1 -5,0 -1,1 -1,3 0,4l9 8 -26 0c-8,0 -14,7 -14,15 0,8 6,14 14,14l60 0c8,0 14,-6 14,-14 0,-8 -6,-15 -14,-15zm0 23l-60 0c-4,0 -8,-4 -8,-8 0,-5 4,-9 8,-9l60 0c4,0 8,4 8,9 0,4 -4,8 -8,8z"/>
  <path class="fil5" d="M77 189c0,-8 6,-13 13,-13 4,0 7,1 10,4 -1,-6 -7,-10 -13,-10 -7,0 -13,5 -13,12 0,4 1,7 3,9 0,-1 0,-2 0,-2z"/>
  <path class="fil1" d="M66 212c3,-6 11,-9 17,-7 4,2 6,5 8,8 1,-6 -2,-12 -8,-14 -7,-3 -14,0 -17,6 -1,4 -1,7 0,10 0,-1 0,-2 0,-3z"/>
  <path class="fil5" d="M83 149c0,-4 3,-7 7,-7 3,0 5,1 6,2 -1,-3 -4,-6 -7,-6 -5,0 -8,3 -8,8 0,2 1,4 2,5 0,-1 0,-1 0,-2z"/>
  <path class="fil1" d="M94 120c2,-4 7,-4 11,-2 2,2 3,4 3,6 1,-4 0,-8 -3,-10 -3,-2 -8,-2 -10,2 -2,1 -2,3 -2,5 0,0 1,-1 1,-1z"/>
  <path class="fil1" d="M63 155c3,-4 8,-4 11,-2 2,1 3,3 3,6 2,-4 1,-8 -2,-10 -4,-2 -9,-2 -11,2 -1,1 -2,3 -2,5 1,0 1,-1 1,-1z"/>
  <path class="fil2" d="M119 40c0,0 -1,0 -1,0 -1,-1 -2,-3 -1,-4 0,-1 10,-22 27,-29 2,0 4,1 4,2 1,2 0,3 -2,4 -15,6 -24,25 -24,25 0,2 -2,2 -3,2z"/>
  <path class="fil2" d="M100 29c0,0 0,0 -1,0 -1,0 -2,-2 -2,-3 0,-1 4,-14 13,-19 2,-1 4,-1 4,1 1,1 1,3 -1,4 -7,4 -10,15 -10,15 0,2 -2,2 -3,2z"/>
  <circle class="fil6" cx="128" cy="175" r="55"/>
  <path class="fil7" d="M128 120l0 110c30,0 55,-24 55,-55 0,-30 -25,-55 -55,-55z"/>
  <circle class="fil6" cx="128" cy="175" r="43"/>
  <path class="fil8" d="M98 145l60 60c17,-16 17,-43 0,-60 -17,-17 -43,-17 -60,0z"/>
  <path class="fil2" d="M128 117c-32,0 -58,26 -58,58 0,32 26,58 58,58 32,0 58,-26 58,-58 0,-32 -26,-58 -58,-58zm0 17c23,0 41,19 41,41 0,23 -18,41 -41,41 -23,0 -41,-18 -41,-41 0,-22 18,-41 41,-41zm51 52c-1,0 -1,-1 -2,-1l-3 0c0,-1 -1,-1 -1,0 0,-3 0,-5 0,-7 1,0 2,0 2,0l3 0c1,0 1,0 2,0 0,3 -1,5 -1,8zm-6 12l-3 -2c0,0 -1,0 -1,0 1,-2 2,-4 2,-7 1,1 1,1 2,1l3 1c0,0 0,0 1,0 0,0 0,0 1,0 -1,3 -2,5 -4,8 0,-1 0,-1 -1,-1zm-91 1c-2,-3 -3,-5 -4,-8 1,0 1,0 1,0 1,0 1,0 1,0l3 -1c1,0 1,0 2,-1 0,3 1,5 2,7 0,0 -1,0 -1,0l-3 2c-1,0 -1,0 -1,1zm-6 -21c1,0 1,0 2,0l3 0c0,0 1,0 2,0 0,2 0,4 0,7 0,-1 -1,-1 -1,0l-3 0c-1,0 -1,1 -2,1 0,-3 -1,-5 -1,-8zm1 -14c1,1 1,1 2,1l3 1c0,0 0,0 0,0 1,0 1,0 1,0 0,2 0,4 0,7 -1,-1 -2,-1 -2,-1l-3 0c-1,0 -1,0 -2,1 0,-3 1,-6 1,-9zm6 -11l3 1c0,0 1,1 1,1 0,0 0,0 0,0 -1,2 -2,4 -2,6 -1,0 -1,-1 -2,-1l-3 -1c0,0 -1,0 -2,0 1,-2 2,-5 4,-8 0,1 0,1 1,2zm76 -13c0,0 0,1 -1,1 -1,-1 -3,-3 -5,-4 0,0 1,-1 1,-1l2 -3c0,0 0,-1 0,-1 3,1 5,3 7,5 -1,0 -1,0 -2,1l-2 2zm-8 -10l-2 3c0,0 0,1 0,2 -2,-1 -5,-2 -7,-3 1,0 1,-1 1,-2l1 -3c0,0 0,-1 0,-1 3,1 5,2 8,3 -1,0 -1,1 -1,1zm-13 -4l-1 3c0,0 0,1 0,2 -2,-1 -4,-1 -7,-1 1,-1 1,-1 1,-2l0 -3c0,-1 0,-1 0,-2 2,0 5,1 8,1 0,1 -1,1 -1,2zm-12 4c-3,0 -5,0 -7,1 0,-1 0,-2 0,-2l-1 -3c0,-1 -1,-1 -1,-2 3,0 6,-1 8,-1 0,1 0,1 0,2l0 3c0,1 0,1 1,2zm-14 -3l1 3c0,1 0,2 1,2 -2,1 -5,2 -7,3 0,-1 0,-2 0,-2l-2 -3c0,0 0,-1 -1,-1 3,-1 5,-2 8,-3 0,0 0,1 0,1zm-12 6l2 3c0,0 1,1 1,1 -2,1 -4,3 -5,4 -1,0 -1,-1 -1,-1l-2 -2c-1,-1 -1,-1 -2,-1 2,-2 4,-4 7,-5 0,0 0,1 0,1zm-3 78c0,-1 0,-1 1,-2 1,2 3,3 5,4 0,1 -1,1 -1,2l-2 2c0,1 0,1 0,2 -3,-2 -5,-3 -7,-5 1,0 1,-1 2,-1l2 -2zm8 9l2 -2c0,-1 0,-2 0,-2 2,1 5,2 7,2 -1,1 -1,1 -1,2l-1 3c0,1 0,1 0,2 -3,-1 -5,-2 -8,-4 1,0 1,0 1,-1zm13 5l1 -3c0,-1 0,-2 0,-2 2,0 4,0 7,1 -1,0 -1,1 -1,1l0 4c0,0 0,1 0,1 -2,0 -5,0 -8,-1 0,0 1,-1 1,-1zm12 -4c3,-1 5,-1 7,-1 0,0 0,1 0,2l1 3c0,0 1,1 1,1 -3,1 -6,1 -8,1 0,0 0,-1 0,-1l0 -4c0,0 0,-1 -1,-1zm14 2l-1 -3c0,-1 0,-1 -1,-2 2,0 5,-1 7,-2 0,0 0,1 0,2l2 2c0,1 0,1 1,1 -3,2 -5,3 -8,4 0,-1 0,-1 0,-2zm12 -6l-2 -2c0,-1 -1,-1 -1,-2 2,-1 4,-2 5,-4 1,1 1,1 1,2l2 2c1,0 1,1 2,1 -2,2 -4,3 -7,5 0,-1 0,-1 0,-2zm18 -66c2,3 3,6 4,8 -1,0 -2,0 -2,0l-3 1c-1,0 -1,1 -2,1 0,-2 -1,-4 -2,-6 0,0 0,0 0,0 0,0 1,-1 1,-1l3 -1c1,-1 1,-1 1,-2zm4 21l-3 0c0,0 -1,0 -2,1 0,-3 0,-5 0,-7 0,0 0,0 1,0 0,0 0,0 0,0l3 -1c1,0 1,0 2,-1 0,3 1,6 1,9 -1,-1 -1,-1 -2,-1zm-6 -25c-1,0 -1,0 -2,0l-3 2c0,0 -1,1 -1,1 -1,-2 -3,-3 -4,-5 0,0 1,-1 1,-1l3 -2c0,-1 0,-1 0,-2 2,2 4,5 6,7zm-82 -7c0,1 0,1 0,2l3 2c0,0 1,1 1,1 -1,2 -3,3 -4,5 0,0 -1,-1 -1,-1l-3 -2c-1,0 -1,0 -2,0 2,-2 4,-5 6,-7zm-6 63c0,0 0,0 0,0 1,0 1,0 2,0l3 -2c0,0 1,0 1,-1 1,2 2,3 3,4 0,1 0,1 0,1 1,0 1,0 1,1 0,0 -1,0 -1,0l-3 3c0,0 0,1 0,1 -2,-2 -4,-4 -6,-7zm82 7c0,0 0,-1 0,-1l-3 -3c0,0 -1,0 -1,0 1,-2 3,-4 4,-6 0,1 1,1 1,1l3 2c1,0 1,0 2,0 0,0 0,0 0,0 -2,3 -4,5 -6,7z"/>
  <path class="fil9" d="M130 146l0 0c2,0 2,0 3,0 2,1 9,2 11,3 2,1 3,2 4,3 2,1 3,2 4,3 0,1 1,2 1,4 1,2 1,4 1,6l0 0c0,3 -1,6 -2,9 -1,2 -4,4 -7,6 0,1 -2,1 -3,2 -1,0 -3,1 -5,1 -1,1 -4,0 -6,0l0 0 0 0c-1,0 -2,0 -3,-1l-1 0 0 0c-1,3 -1,6 -2,8 0,3 -1,5 -2,8 0,1 0,2 -1,2 0,1 0,2 0,2 -1,1 -1,1 -2,1 -1,1 -1,1 -2,1l0 0 0 0c-1,0 -2,0 -2,-1 -1,0 -1,-1 -1,-2l0 0 0 0 0 0 0 -4c0,0 0,0 1,-1l0 -3c2,-11 5,-21 8,-31l1 -7c-1,0 -2,0 -3,0l-1 0c0,0 0,0 -1,0l-2 1c0,0 0,0 0,0 -1,0 -2,1 -2,1l0 1c0,0 0,0 0,1 0,1 1,2 1,3l1 0 0 1 -1 1c-1,0 -2,0 -3,-1l-1 1 -4 -4c0,0 0,0 0,-1 -1,0 -1,-1 -1,-1l0 0c0,-1 0,-2 1,-3 0,0 1,-1 1,-2 1,0 1,0 1,0 1,-1 1,-1 2,-1 0,0 0,-1 1,-1 0,0 1,-1 1,-1 1,0 2,-1 4,-1 1,-1 3,-1 4,-2l1 0 0 0 6 -1 0 0zm-2 30l2 1 3 0c3,-1 5,-1 6,-2 2,0 3,0 3,-1l0 0c1,0 1,0 1,-1 0,0 1,-1 1,-1 1,-1 1,-2 1,-2 0,-1 1,-2 1,-3 0,-2 -1,-3 -1,-4 0,-1 -1,-2 -1,-3 0,-1 -1,-1 -1,-1 0,-1 -1,-1 -1,-2l-1 0 0 0c0,0 0,0 0,-1 -1,0 -1,0 -1,0l-1 0 0 0c0,0 0,0 0,0 0,-1 0,-1 0,-1l-1 0 0 0c0,0 0,0 0,0l-1 0c0,0 -1,0 -1,0l0 0c-1,0 -1,0 -2,0 0,0 0,0 -1,0 0,2 -1,3 -1,6 -1,3 -2,6 -2,10l0 0c-1,1 -1,3 -2,4 0,0 0,1 0,1z"/>
 </g>
</svg>
