<?xml version="1.0" encoding="UTF-8"?>
<!DOCTYPE svg PUBLIC "-//W3C//DTD SVG 1.1//EN" "http://www.w3.org/Graphics/SVG/1.1/DTD/svg11.dtd">
<!-- Creator: CorelDRAW X8 -->
<svg xmlns="http://www.w3.org/2000/svg" xml:space="preserve" width="256px" height="256px" version="1.1" style="shape-rendering:geometricPrecision; text-rendering:geometricPrecision; image-rendering:optimizeQuality; fill-rule:evenodd; clip-rule:evenodd"
viewBox="0 0 256 256"
 xmlns:xlink="http://www.w3.org/1999/xlink">
 <defs>
  <style type="text/css">
   <![CDATA[
    .fil3 {fill:#1780CE}
    .fil1 {fill:#2C8CF4}
    .fil4 {fill:#33363A}
    .fil2 {fill:#F95428}
    .fil0 {fill:white}
   ]]>
  </style>
 </defs>
 <g id="图层_x0020_1">
  <metadata id="CorelCorpID_0Corel-Layer"/>
  <polygon class="fil0" points="252,50 252,100 244,100 153,100 152,50 236,50 "/>
  <polygon class="fil0" points="252,50 252,100 244,100 153,100 152,50 236,50 "/>
  <polygon class="fil1" points="244,100 244,245 12,245 12,100 12,100 244,100 244,100 "/>
  <path class="fil2" d="M214 16l22 34 -84 0 -24 0 73 -37c4,-3 10,-1 13,3z"/>
  <polygon class="fil0" points="173,186 146,190 148,217 128,199 108,217 110,190 83,186 106,171 92,147 118,155 128,130 138,155 164,147 150,171 "/>
  <polygon class="fil3" points="244,100 244,114 12,114 12,100 12,100 244,100 "/>
  <polygon class="fil2" points="153,100 153,114 129,100 104,114 104,100 103,50 128,50 152,50 "/>
  <path class="fil2" d="M128 50l-25 0 -84 0 22 -34c3,-4 9,-6 13,-3l74 37z"/>
  <polygon class="fil0" points="103,50 104,100 104,100 12,100 4,100 4,50 19,50 "/>
  <path class="fil4" d="M211 240l-195 0 0 -126c0,-2 -1,-4 -4,-4 -2,0 -4,2 -4,4l0 131c0,2 2,4 4,4l199 0c2,0 4,-2 4,-4 0,-3 -2,-5 -4,-5z"/>
  <path class="fil4" d="M252 45l-13 0 -22 -31c-4,-6 -12,-9 -18,-5l-19 9c-2,1 -3,4 -2,6 1,2 4,3 6,2l19 -10c2,-1 6,0 7,2l18 27 -83 0 23 -11c2,-1 3,-4 2,-6 -1,-2 -4,-3 -6,-2l-36 19 -72 -36c-6,-4 -14,-1 -18,5l-22 31 -12 0c-2,0 -4,2 -4,5l0 50c0,3 2,5 4,5l96 0 0 9c0,1 1,3 2,3 2,1 3,1 4,0l23 -12 22 12c0,1 1,1 2,1 1,0 1,0 2,-1 1,0 2,-2 2,-3l0 -9 83 0 0 135 -12 0c-2,0 -4,2 -4,5 0,2 2,4 4,4l16 0c2,0 4,-2 4,-4l0 -140 4 0c2,0 4,-2 4,-5l0 -50c0,-3 -2,-5 -4,-5zm-207 -27c2,-2 5,-3 8,-2l57 29 -83 0 18 -27zm86 79c-2,-1 -3,-1 -4,0l-18 9 0 -24c0,-2 -2,-4 -5,-4 -2,0 -4,2 -4,4l0 14 -91 0 0 -42 91 0 0 13c0,3 2,5 4,5 3,0 5,-2 5,-5l0 -13 19 0 21 0 0 52 -18 -9zm26 -43l90 0 0 42 -90 0 0 -42z"/>
  <path class="fil4" d="M79 187c0,2 2,3 4,3l22 4 -1 23c0,2 1,3 2,4 1,0 1,0 2,0 1,0 2,0 3,-1l17 -15 17 15c1,1 3,2 5,1 1,-1 2,-2 2,-4l-1 -23 22 -4c2,0 4,-1 4,-3 0,-2 0,-4 -2,-5l-19 -13 5 -8 0 0 7 -12c1,-1 0,-3 -1,-5 -1,-1 -3,-2 -4,-1l-23 7 -8 -22c-1,-1 -2,-2 -4,-2l0 0c-2,0 -3,1 -4,2l-8 22 -23 -7c-1,-1 -3,0 -4,1 -1,2 -2,4 -1,5l12 20 -19 13c-2,1 -2,3 -2,5zm29 -13c2,-1 2,-4 1,-6l-8 -14 16 5c2,1 4,0 5,-2l6 -16 6 16c1,2 3,3 5,2l16 -5 -1 3 0 0 -7 11c-1,2 -1,5 1,6l13 9 -16 3c-2,0 -3,2 -3,4l1 17 -12 -11c-1,-1 -2,-2 -3,-2 -1,0 -2,1 -3,2l-12 11 1 -17c0,-2 -1,-4 -3,-4l-16 -3 13 -9z"/>
  <path class="fil4" d="M43 122c-3,0 -5,2 -5,4l0 11 -10 0c-2,0 -4,2 -4,4 0,2 2,4 4,4l10 0 0 11c0,2 2,4 5,4 2,0 4,-2 4,-4l0 -11 10 0c3,0 5,-2 5,-4 0,-2 -2,-4 -5,-4l-10 0 0 -11c0,-2 -2,-4 -4,-4z"/>
  <path class="fil4" d="M212 201l-7 0 0 -6c0,-3 -1,-5 -4,-5 -2,0 -4,2 -4,5l0 6 -7 0c-2,0 -4,2 -4,4 0,3 2,5 4,5l7 0 0 6c0,3 2,4 4,4 3,0 4,-1 4,-4l0 -6 7 0c2,0 4,-2 4,-5 0,-2 -2,-4 -4,-4z"/>
  <path class="fil4" d="M191 73l-5 0 0 -6c0,-2 -2,-4 -5,-4 -2,0 -4,2 -4,4l0 6 -5 0c-3,0 -5,2 -5,4 0,2 2,4 5,4l5 0 0 6c0,2 2,4 4,4 3,0 5,-2 5,-4l0 -6 5 0c3,0 4,-2 4,-4 0,-2 -1,-4 -4,-4z"/>
 </g>
</svg>
